<?xml version="1.0" encoding="UTF-8" standalone="no"?> <!-- Created with Vectornator for iOS (http://vectornator.io/) --><!DOCTYPE svg PUBLIC "-//W3C//DTD SVG 1.1//EN" "http://www.w3.org/Graphics/SVG/1.1/DTD/svg11.dtd">
<svg height="100%" style="fill-rule:nonzero;clip-rule:evenodd;stroke-linecap:round;stroke-linejoin:round;" xmlns:xlink="http://www.w3.org/1999/xlink" xmlns="http://www.w3.org/2000/svg" xml:space="preserve" width="100%" xmlns:vectornator="http://vectornator.io" version="1.1" viewBox="0 0 3000 3000">
<metadata>
<vectornator:setting key="DimensionsVisible" value="1"/>
<vectornator:setting key="PencilOnly" value="0"/>
<vectornator:setting key="SnapToPoints" value="0"/>
<vectornator:setting key="OutlineMode" value="0"/>
<vectornator:setting key="CMYKEnabledKey" value="0"/>
<vectornator:setting key="RulersVisible" value="1"/>
<vectornator:setting key="SnapToEdges" value="0"/>
<vectornator:setting key="GuidesVisible" value="1"/>
<vectornator:setting key="DisplayWhiteBackground" value="0"/>
<vectornator:setting key="doHistoryDisabled" value="0"/>
<vectornator:setting key="SnapToGuides" value="1"/>
<vectornator:setting key="TimeLapseWatermarkDisabled" value="0"/>
<vectornator:setting key="Units" value="Pixels"/>
<vectornator:setting key="DynamicGuides" value="0"/>
<vectornator:setting key="IsolateActiveLayer" value="0"/>
<vectornator:setting key="SnapToGrid" value="0"/>
</metadata>
<defs/>
<g id="Capa 4" vectornator:layerName="Capa 4" visibility="hidden">
<path d="M840.802-6.5181L2159.2-6.5181L2159.2+3030.91L840.802+3030.91L840.802-6.5181Z" opacity="0.997114" fill="#b4acac"/>
</g>
<g id="Capa 1" vectornator:layerName="Capa 1" visibility="hidden">
<path d="M1174.61+783.38C1178.65+782.034+1185.44+780.869+1185.44+776.612C1185.44+773.002+1178.2+777.06+1174.61+776.612C1160.54+774.853+1149.83+771.446+1136.71+779.319C1134.52+780.632+1133.49+783.42+1131.3+784.733C1123.28+789.543+1114.53+791.944+1106.93+798.269C1103.99+800.72+1101.93+804.166+1098.81+806.391C1080.12+819.743+1057.93+828.248+1039.25+841.584C1022.59+853.486+1005.25+865.882+987.818+876.778C984.396+878.917+980.274+879.846+976.99+882.192C964.771+890.92+953.362+902.333+941.796+911.971C927.019+924.286+910.552+934.85+895.774+947.164C878.63+961.451+864.184+978.904+847.045+993.186C842.046+997.352+835.883+999.95+830.802+1004.02C826.816+1007.2+824.35+1012.22+819.973+1014.84C817.526+1016.31+814.299+1016.08+811.852+1017.55C809.238+1019.12+794.889+1031.81+792.901+1033.79C790.601+1036.09+789.52+1039.37+787.487+1041.92C783.877+1046.43+778.037+1048.66+773.951+1052.74C771.65+1055.05+770.837+1058.57+768.537+1060.87C766.236+1063.17+762.956+1064.25+760.415+1066.28C752.518+1072.6+746.844+1081.87+738.758+1087.94C730.734+1093.96+725.825+1098.86+719.807+1106.89C716.745+1110.97+711.605+1113.34+708.979+1117.72C707.511+1120.16+707.74+1123.39+706.272+1125.84C700.599+1135.29+690.286+1143.46+684.614+1152.91C683.146+1155.36+683.375+1158.58+681.907+1161.03C680.594+1163.22+678.024+1164.4+676.493+1166.45C671.571+1173.01+669.235+1180.96+665.664+1188.1C661.498+1196.44+656.294+1204.14+652.128+1212.47C642.659+1231.41+637.202+1251.9+633.178+1272.03C632.225+1276.79+628.716+1280.8+627.763+1285.56C627.232+1288.22+628.208+1291.01+627.763+1293.68C625.343+1308.21+619.353+1322.49+616.935+1337C615.21+1347.34+608.592+1356.83+606.106+1366.78C603.866+1375.74+602.196+1384.82+600.692+1393.85C598.779+1405.32+589.371+1415.26+587.156+1426.34C586.625+1428.99+587.687+1431.8+587.156+1434.46C585.507+1442.7+578+1450.46+576.327+1458.82C575.796+1461.48+576.772+1464.27+576.327+1466.94C575.019+1474.79+569.514+1480.75+568.205+1488.6C565.756+1503.29+561.551+1517.31+557.377+1531.92C552.521+1548.91+543.588+1568.88+541.134+1586.06C540.623+1589.63+541.644+1593.31+541.134+1596.89C540.326+1602.54+536.657+1607.5+535.719+1613.13C533.797+1624.66+531.948+1636.82+530.305+1648.32C529.284+1655.47+531.326+1662.83+530.305+1669.98C529.901+1672.81+528.067+1675.29+527.598+1678.1C525.617+1689.99+527.598+1703.93+527.598+1716C527.598+1728.95+524.487+1746.87+527.598+1759.32C529.195+1765.71+531.667+1771.54+533.012+1778.27C534.053+1783.47+531.971+1789.31+533.012+1794.51C535.034+1804.62+535.992+1814.55+538.426+1824.29C540.974+1834.48+535.878+1846.59+538.426+1856.78C541.493+1869.05+541.323+1882.09+543.841+1894.68C544.987+1900.41+550.543+1905.24+551.962+1910.92C552.865+1914.53+552.437+1918.77+554.669+1921.75C556.201+1923.79+558.771+1924.98+560.084+1927.16C566.752+1938.28+571.061+1951.73+579.034+1962.36C581.741+1965.97+585.48+1969+587.156+1973.19C593.768+1989.72+602.329+2003.89+611.52+2019.21C618.279+2030.47+622.221+2044.09+630.471+2054.4C638.522+2064.46+646.527+2074.21+654.835+2084.18C668.18+2100.19+677.129+2119.49+690.029+2135.62C694.812+2141.6+701.488+2145.88+706.272+2151.86C710.731+2157.43+713.707+2163.53+719.807+2168.1C721.422+2169.31+723.795+2169.38+725.222+2170.81C729.389+2174.98+731.883+2182.89+736.051+2187.05C740.111+2191.11+745.526+2193.82+749.586+2197.88C751.013+2199.31+750.867+2201.87+752.294+2203.3C753.72+2204.72+756.281+2204.58+757.708+2206C759.135+2207.43+759.155+2209.84+760.415+2211.42C771.833+2225.69+792.079+2245.95+806.437+2257.44C816.585+2265.56+827.575+2275+838.923+2281.8C854.288+2291.02+870.724+2297.5+884.945+2308.88C901.17+2321.86+915.371+2336.72+928.26+2352.19C931.629+2356.23+933.225+2361.52+936.382+2365.73C940.646+2371.41+945.654+2376.29+949.918+2381.97C952.339+2385.2+952.479+2389.95+955.332+2392.8C956.759+2394.23+959.627+2393.83+960.747+2395.51C961.748+2397.01+959.939+2399.31+960.747+2400.92C962.764+2404.96+965.678+2408.56+968.868+2411.75C970.295+2413.18+972.856+2413.03+974.282+2414.46C975.709+2415.88+975.563+2418.44+976.99+2419.87C979.843+2422.72+984.59+2422.86+987.818+2425.28C993.428+2429.49+1001.96+2436.72+1006.77+2441.53C1009.96+2444.72+1011.7+2449.17+1014.89+2452.36C1020.06+2457.53+1026.73+2460.02+1031.13+2465.89C1033.84+2469.5+1035.65+2474.01+1039.25+2476.72C1040.87+2477.93+1043.24+2478+1044.67+2479.43C1053.31+2488.07+1058.25+2501.18+1063.62+2511.91C1067.44+2519.56+1073.94+2525.53+1077.16+2533.57C1085.3+2553.93+1090.9+2575.01+1096.11+2595.84C1098.45+2605.22+1096.91+2616.1+1098.81+2625.62C1101.6+2639.54+1105.09+2660.07+1101.52+2674.35C1097.93+2688.72+1091.66+2702.94+1087.98+2717.66C1085.13+2729.07+1082.62+2741.93+1077.16+2752.85C1067.77+2771.62+1055.55+2788.87+1044.67+2807C1039.05+2816.36+1035.21+2828.3+1028.43+2836.78C1026.03+2839.77+1022.7+2841.91+1020.3+2844.9C1015.15+2851.34+1012.67+2860.66+1006.77+2866.56C1005.34+2867.98+1002.78+2867.84+1001.35+2869.26C999.927+2870.69+1000.07+2873.25+998.647+2874.68C997.22+2876.1+994.66+2875.96+993.233+2877.38C991.806+2878.81+991.952+2881.37+990.526+2882.8C989.099+2884.23+986.538+2884.08+985.111+2885.51C983.684+2886.93+983.831+2889.49+982.404+2890.92C978.318+2895.01+973.38+2898.14+968.868+2901.75C964.759+2905.04+959.374+2906.5+955.332+2909.87C950.43+2913.96+946.779+2919.42+941.796+2923.41C932.23+2931.06+921.743+2937.77+912.017+2945.06C907.253+2948.64+900.539+2949.61+895.774+2953.19C877.29+2967.05+860.115+2982.64+841.631+2996.5C834.267+3002.02+803.73+3025.48+803.73+3034.4C803.73+3038.89+816.398+3043.44+819.973+3045.23C830.233+3050.36+841.554+3051.79+852.459+3053.35C858.963+3054.28+864.906+3057.84+871.41+3058.77C880.253+3060.03+889.638+3057.5+898.481+3058.77C918.292+3061.6+938.229+3061.35+958.039+3064.18C971.311+3066.08+985.34+3062.52+998.647+3064.18C1019.54+3066.79+1040.06+3069.69+1060.91+3072.3C1076.1+3074.2+1092.11+3075.48+1106.93+3080.42C1119.61+3084.65+1132+3089.68+1144.83+3093.96C1161.23+3099.42+1179.36+3101.4+1196.27+3104.79C1205.51+3106.63+1214.41+3109.93+1223.34+3112.91C1232.07+3115.82+1241.54+3115.9+1250.41+3118.32C1268.05+3123.13+1285.22+3132.59+1301.85+3139.98C1317.51+3146.94+1334.41+3150.83+1350.58+3156.22C1373.59+3163.89+1395.25+3175.62+1418.26+3183.3C1482.45+3204.69+1551.83+3216.49+1618.59+3223.9C1629.06+3225.07+1640.54+3223.9+1651.08+3223.9C1666.94+3223.9+1684.04+3225.65+1699.81+3223.9C1707.2+3223.08+1714.07+3219.31+1721.46+3218.49C1725.95+3217.99+1730.52+3218.99+1735+3218.49C1749.67+3216.86+1763.67+3209.49+1778.32+3207.66C1803.74+3204.48+1828.86+3197.73+1854.12+3194.12C1874.68+3191.19+1895.91+3191.63+1916.38+3188.71C1926.22+3187.3+1936.54+3183.34+1946.16+3180.59C1963.2+3175.72+1980.56+3171.92+1997.6+3167.05C2013.33+3162.56+2031.32+3159.95+2046.33+3153.52C2065.48+3145.31+2081.4+3133.3+2097.76+3121.03C2106.24+3114.67+2115.52+3108.18+2122.13+3099.37C2124.83+3095.76+2128.23+3092.58+2130.25+3088.54C2131.91+3085.22+2130.72+3080.69+2132.96+3077.72C2136.94+3072.4+2142.05+3068.4+2143.78+3061.47C2145.91+3052.98+2141.66+3042.89+2143.78+3034.4C2147.45+3019.74+2153.2+3001.67+2149.2+2985.67C2148.22+2981.76+2144.76+2978.76+2143.78+2974.84C2141.08+2964.03+2138.37+2953.2+2135.66+2942.36C2134.1+2936.09+2134.23+2929.79+2132.96+2923.41C2131.11+2914.16+2124.01+2905.76+2122.13+2896.33C2121.77+2894.56+2122.8+2892.6+2122.13+2890.92C2120.44+2886.71+2114.35+2876.04+2111.3+2871.97C2109.77+2869.93+2107.03+2868.84+2105.88+2866.56C2105.08+2864.94+2106.32+2862.89+2105.88+2861.14C2104.57+2855.89+2099.7+2852.46+2097.76+2847.6C2097.09+2845.93+2098.2+2843.94+2097.76+2842.19C2096.67+2837.81+2092.35+2829.56+2089.64+2825.95C2084.72+2819.39+2078.32+2813.56+2073.4+2807C2070.24+2802.79+2069+2797.18+2065.28+2793.46C2063.85+2792.03+2061.29+2792.18+2059.86+2790.75C2058.43+2789.33+2058.58+2786.77+2057.15+2785.34C2054.85+2783.04+2051.57+2781.96+2049.03+2779.93C2045.51+2777.11+2043.62+2772.71+2040.91+2769.1C2033.66+2759.43+2023.76+2751.64+2016.55+2742.02C2015.02+2739.98+2012.27+2738.89+2011.13+2736.61C2010.33+2735+2011.94+2732.81+2011.13+2731.2C2009.99+2728.91+2007.25+2727.82+2005.72+2725.78C2001.94+2720.74+1996.41+2710.23+1994.89+2704.12C1994.01+2700.62+1995.76+2696.8+1994.89+2693.3C1987.69+2664.49+1991.86+2629.93+1997.6+2601.25C1998.3+2597.71+1996.89+2593.96+1997.6+2590.42C2001.99+2568.48+2007.88+2541.51+2021.96+2522.74C2028.52+2514+2038+2507.75+2046.33+2501.09C2053.15+2495.63+2056.65+2488.06+2062.57+2482.14C2064+2480.71+2066.56+2480.86+2067.98+2479.43C2071.7+2475.71+2072.82+2470+2076.1+2465.89C2080.57+2460.31+2085.36+2455.36+2089.64+2449.65C2092.06+2446.42+2092.63+2442.05+2095.06+2438.82C2103.68+2427.32+2120.36+2415.59+2127.54+2403.63C2129.01+2401.18+2128.78+2397.95+2130.25+2395.51C2135.47+2386.8+2145.74+2379.36+2151.91+2371.14C2156.15+2365.49+2159.08+2358.28+2162.73+2352.19C2165.71+2347.24+2170.1+2343.28+2173.56+2338.66C2178.45+2332.14+2180.37+2323.69+2184.39+2317C2185.71+2314.81+2188.49+2313.77+2189.81+2311.58C2191.27+2309.14+2191.05+2305.91+2192.51+2303.46C2197.57+2295.03+2206.41+2287.52+2211.46+2279.1C2212.93+2276.65+2212.7+2273.42+2214.17+2270.98C2219.5+2262.1+2230.42+2255.62+2235.83+2246.61C2237.3+2244.16+2237.07+2240.94+2238.54+2238.49C2239.85+2236.3+2242.64+2235.26+2243.95+2233.08C2245.42+2230.63+2245.38+2227.51+2246.66+2224.95C2249.57+2219.13+2254.58+2214.53+2257.49+2208.71C2264.56+2194.55+2266.12+2182.81+2271.02+2168.1C2274.67+2157.14+2279.99+2146.27+2284.56+2135.62C2291.11+2120.33+2293.54+2102.83+2298.09+2086.89C2301.87+2073.66+2306.97+2059.95+2308.92+2046.28C2311.79+2026.18+2315.86+2006.19+2319.75+1986.72C2321.19+1979.52+2326.62+1972.58+2327.87+1965.06C2328.92+1958.77+2328.83+1952.25+2330.58+1946.11C2338.68+1917.78+2347.35+1889.65+2357.65+1862.19C2366.46+1838.71+2371.17+1810.95+2373.89+1786.39C2375.33+1773.52+2380.73+1761.38+2382.02+1748.49C2382.47+1744+2381.57+1739.44+2382.02+1734.95C2384.13+1713.86+2392.94+1693.58+2395.55+1672.69C2397.36+1658.25+2399.16+1643.81+2400.97+1629.37C2402.26+1619+2400.97+1607.36+2400.97+1596.89C2400.97+1566.64+2399.78+1539.83+2395.55+1510.26C2394.66+1504+2396.34+1497.58+2395.55+1491.31C2394.3+1481.32+2391.37+1471.35+2390.14+1461.53C2389.58+1457.05+2390.7+1452.47+2390.14+1447.99C2388.9+1438.06+2383.28+1428.3+2382.02+1418.21C2378.1+1386.91+2370.43+1353.69+2360.36+1323.46C2353.36+1302.47+2343.05+1282.35+2335.99+1261.2C2334.46+1256.59+2331.53+1252.43+2330.58+1247.66C2328.73+1238.43+2327.01+1229.82+2325.17+1220.59C2323.9+1214.26+2318.31+1207.97+2317.04+1201.64C2314.93+1191.05+2313.75+1179.74+2311.63+1169.15C2309.59+1158.94+2300.63+1149.5+2298.09+1139.37C2296.09+1131.34+2291.65+1123.38+2289.97+1115.01C2289.62+1113.24+2290.78+1111.21+2289.97+1109.6C2288.83+1107.31+2285.7+1106.46+2284.56+1104.18C2283.75+1102.57+2285.36+1100.38+2284.56+1098.77C2283.42+1096.48+2280.67+1095.39+2279.14+1093.35C2270.26+1081.51+2264.87+1065.05+2257.49+1052.74C2253.71+1046.45+2245.66+1042.39+2241.24+1036.5C2219.72+1007.81+2190.65+983.036+2162.73+960.7C2140.09+942.582+2118.07+923.816+2095.06+906.557C2091.83+904.135+2087.45+903.564+2084.23+901.142C2067.01+888.23+2048.83+877.198+2030.08+865.949C2025.92+863.449+2020.71+863.035+2016.55+860.535C2014.36+859.221+2013.32+856.433+2011.13+855.12C2004.17+850.941+1996.44+848.471+1989.48+844.291C1987.29+842.978+1986.25+840.19+1984.06+838.877C1963.09+826.295+1938.16+819.989+1916.38+809.098C1899.09+800.45+1875.56+795.531+1856.82+792.855C1844.64+791.115+1833.63+783.741+1821.63+782.026C1803.49+779.435+1785.45+777.497+1767.49+773.905C1762.72+772.952+1758.66+769.669+1753.95+768.49C1748.63+767.16+1743.11+766.864+1737.71+765.783C1730.15+764.272+1723.3+759.475+1716.05+757.662C1701.83+754.106+1686.95+753.093+1672.73+749.54C1662.52+746.987+1653.01+741.225+1642.96+738.711C1634.03+736.48+1624.83+735.534+1615.88+733.297C1612.38+732.422+1608.56+734.173+1605.06+733.297C1582.85+727.747+1560.98+725.176+1537.38+725.176C1519.33+725.176+1501.28+725.176+1483.23+725.176C1476.74+725.176+1467.84+723.608+1461.57+725.176C1459.62+725.665+1458.14+727.487+1456.16+727.883C1439.67+731.18+1421.21+724.585+1404.72+727.883C1397.6+729.308+1390.19+731.872+1383.07+733.297C1378.64+734.182+1373.91+732.203+1369.53+733.297C1347.99+738.682+1325.87+741.506+1304.56+746.833C1295.57+749.08+1285.8+756.211+1277.49+760.369C1274.16+762.033+1270.27+762.174+1266.66+763.076C1259.19+764.944+1252.45+769.335+1245+771.198C1240.54+772.314+1235.41+771.537+1231.46+773.905C1229.28+775.218+1228.09+777.788+1226.05+779.319C1217.62+785.643+1208.86+784.733+1198.98+784.733C1190.86+784.733+1182.74+784.733+1174.61+784.733C1173.11+784.733+1161.08+784.734+1161.08+784.733C1165.48+783.634+1170.31+784.814+1174.61+783.38Z" opacity="0.997114" fill="#000000"/>
</g>
<g id="Capa 5" vectornator:layerName="Capa 5" visibility="hidden">
<path d="M838.295+29.2812C839.261+31.2118+839.143+34.3904+841.191+35.073C843.239+35.7556+846.3+34.2248+846.983+32.1771C847.666+30.1293+844.51+28.5018+844.087+26.3852C843.519+23.5455+844.655+20.5371+844.087+17.6975C843.039+12.4577+832.56-5.75139+829.607+9.0097C827.118+21.4595+830.998+34.6168+832.503+46.6567C833.461+54.3195+831.546+62.1612+832.503+69.824C833.469+77.5465+834.12+85.3148+835.399+92.9914C835.754+95.1205+837.94+96.6541+838.295+98.7833C840.17+110.031+839.317+122.287+841.191+133.534C843.578+147.856+850.626+161.934+852.775+176.973C854.278+187.492+854.353+198.283+855.671+208.828C856.832+218.121+860.868+229.061+864.359+237.787C865.962+241.796+869.304+245.138+870.15+249.371C875.31+275.168+879.481+301.818+884.63+327.561C885.477+331.794+888.819+335.137+890.422+339.145C896.509+354.363+903.97+363.967+913.589+376.792C918.464+383.292+921.531+392.675+925.173+399.959C931.85+413.314+939.902+426.646+945.444+440.502C948.378+447.837+949.281+457.201+954.132+463.669C955.77+465.854+958.519+467.12+959.924+469.461C962.598+473.919+963.391+479.291+965.716+483.941C976.527+505.563+986.123+528.525+1000.47+547.651C1005.34+554.151+1008.41+563.535+1012.05+570.818C1020.74+588.194+1029.43+605.569+1038.11+622.945C1044.22+635.155+1053.39+645.206+1058.39+657.696C1062.35+667.596+1068.21+679.004+1069.97+689.551C1070.45+692.408+1069.4+695.399+1069.97+698.239C1073.08+713.806+1084.23+729.006+1087.34+744.574C1089.14+753.533+1089.56+758.79+1093.14+767.741C1105.59+798.87+1124.54+827.657+1139.47+857.515C1145.25+869.067+1154.32+882.529+1156.85+895.162C1157.98+900.841+1155.71+906.858+1156.85+912.537C1157.27+914.654+1159.32+916.212+1159.74+918.329C1162.39+931.569+1159.74+948.226+1159.74+961.768C1159.74+967.56+1160.88+973.464+1159.74+979.143C1159.32+981.26+1157.27+982.819+1156.85+984.935C1155.71+990.615+1157.98+996.631+1156.85+1002.31C1155.5+1009.02+1152.4+1015.87+1151.05+1022.58C1149.92+1028.26+1152.19+1034.28+1151.05+1039.96C1150.21+1044.19+1146.87+1047.53+1145.26+1051.54C1138.28+1068.99+1130.57+1091.4+1119.2+1106.56C1115.92+1110.93+1110.89+1113.78+1107.62+1118.15C1103.01+1124.28+1099.64+1130.64+1093.14+1135.52C1086.66+1140.38+1075.67+1141.41+1069.97+1147.11C1068.44+1148.63+1068.8+1151.6+1067.07+1152.9C1062.91+1156.02+1057.24+1156.37+1052.59+1158.69C1044.67+1162.65+1041.06+1167.36+1032.32+1170.27C1029.43+1171.24+1026.47+1172.04+1023.63+1173.17C1021.63+1173.97+1016.32+1174.54+1017.84+1176.07C1019.89+1178.11+1023.63+1176.07+1026.53+1176.07C1030.39+1176.07+1034.25+1176.07+1038.11+1176.07C1053.34+1176.07+1066.65+1169.51+1081.55+1167.38C1090.57+1166.09+1098.52+1166+1107.62+1164.48C1115.19+1163.22+1123.38+1158.26+1130.78+1155.79C1151.32+1148.95+1171.47+1143.58+1191.6+1135.52C1204.31+1130.44+1221.11+1126.42+1232.14+1118.15C1236+1115.25+1237.42+1109.98+1240.83+1106.56C1245.17+1102.22+1250.96+1099.32+1255.31+1094.98C1267.29+1082.99+1271.14+1066.21+1278.48+1051.54C1289.75+1029+1299.44+1006.03+1307.43+982.039C1318.76+948.051+1334.77+913.946+1339.29+877.786C1341.09+863.415+1340.39+848.716+1342.19+834.347C1344.24+817.941+1348.19+801.195+1350.87+785.117C1353.44+769.736+1350.87+751.437+1350.87+735.886C1350.87+700.17+1350.87+664.453+1350.87+628.737C1350.87+617.937+1348.76+604.546+1350.87+593.986C1351.3+591.869+1353.35+590.311+1353.77+588.194C1355.28+580.621+1352.92+572.702+1353.77+565.027C1354.65+557.115+1358.44+549.739+1359.56+541.859C1359.97+538.992+1358.99+536.011+1359.56+533.171C1361.85+521.71+1369.18+510.188+1371.14+498.42C1371.62+495.564+1370.58+492.572+1371.14+489.733C1372.5+482.959+1377.63+476.066+1379.83+469.461C1384.78+454.623+1390.27+442.798+1397.21+428.918C1404.53+414.281+1409.08+396.582+1417.48+382.584C1418.88+380.242+1421.63+378.976+1423.27+376.792C1427.4+371.281+1430.72+364.927+1434.86+359.416C1450.18+338.987+1491.15+320.109+1515.94+315.977C1518.8+315.501+1521.79+316.545+1524.63+315.977C1526.75+315.554+1528.3+313.505+1530.42+313.081C1539.32+311.302+1556.28+311.302+1565.17+313.081C1567.29+313.505+1568.85+315.554+1570.96+315.977C1578.77+317.538+1586.33+317.312+1594.13+318.873C1600.9+320.228+1607.63+326.206+1614.4+327.561C1617.24+328.129+1620.25+326.993+1623.09+327.561C1633.96+329.736+1642.07+338.048+1652.05+342.041C1670.8+349.539+1700.15+367.323+1712.86+382.584C1721.44+392.875+1729.5+405.016+1738.93+414.439C1740.45+415.965+1743.19+415.808+1744.72+417.335C1747.77+420.387+1747.92+425.465+1750.51+428.918C1753.41+432.78+1757.41+436.021+1759.2+440.502C1770.59+468.976+1773.96+500.862+1782.37+530.276C1788.85+552.976+1788.16+575.675+1788.16+599.778C1788.16+615.223+1788.16+630.667+1788.16+646.112C1788.16+652.87+1789.48+659.758+1788.16+666.384C1787.73+668.5+1785.68+670.059+1785.26+672.176C1783.75+679.748+1786.35+687.698+1785.26+695.343C1784.96+697.48+1782.79+699.018+1782.37+701.135C1781.03+707.828+1780.43+714.649+1779.47+721.406C1776.58+741.641+1779.47+764.69+1779.47+785.117C1779.47+806.739+1779.7+827.467+1782.37+848.827C1783.77+860.076+1780.15+872.479+1782.37+883.578C1782.79+885.695+1784.84+887.253+1785.26+889.37C1788.1+903.546+1785.26+921.36+1785.26+935.705C1785.26+974.642+1781.66+1014.68+1793.95+1051.54C1796.39+1058.85+1801.66+1065.36+1805.53+1071.81C1811.62+1081.96+1817.37+1095.23+1825.8+1103.67C1827.33+1105.19+1829.87+1105.27+1831.6+1106.56C1857.04+1125.65+1885.77+1145.33+1918.47+1150C1922.3+1150.55+1926.24+1149.46+1930.06+1150C1936.1+1150.87+1941.41+1154.79+1947.43+1155.79C1975.52+1160.48+2002.3+1164.48+2031.41+1164.48C2051.69+1164.48+2071.96+1164.48+2092.23+1164.48C2095.13+1164.48+2098.02+1164.48+2100.92+1164.48C2103.81+1164.48+2107.56+1166.53+2109.6+1164.48C2110.71+1163.38+2089.68+1155.89+2089.33+1155.79C2082.77+1153.92+2075.76+1154.24+2069.06+1152.9C2063.24+1151.73+2057.22+1146.43+2051.69+1144.21C2015.1+1129.58+1988.07+1100.96+1970.6+1066.02C1961.79+1048.4+1954.72+1029.23+1947.43+1011C1945.34+1005.77+1941.26+1001.55+1938.75+996.519C1934.97+988.966+1932.28+978.61+1930.06+970.456C1926.67+958.031+1925.07+945.144+1921.37+932.809C1918.03+921.66+1914.15+908.958+1909.79+898.058C1907.41+892.125+1903.12+886.74+1901.1+880.682C1896.37+866.507+1895.25+851.447+1892.41+837.243C1890.9+829.683+1887.94+821.982+1886.62+814.076C1885.67+808.363+1887.57+802.413+1886.62+796.7C1886.12+793.689+1884.1+791.042+1883.72+788.013C1882.11+775.104+1883.72+760.548+1883.72+747.47C1883.72+725.476+1880.17+696.4+1883.72+675.072C1886.74+656.953+1893+638.503+1895.31+620.049C1895.79+616.218+1894.76+612.288+1895.31+608.465C1896.3+601.508+1900.1+595.151+1901.1+588.194C1907.22+545.341+1925.66+506.525+1941.64+466.565C1945.6+456.661+1952.75+447.717+1956.12+437.606C1957.38+433.83+1957.45+429.681+1959.02+426.022C1963.15+416.378+1970.09+407.271+1973.5+397.063C1984.42+364.292+1993.14+328.608+2011.14+298.602C2023.17+278.56+2033.88+257.812+2045.89+237.787C2054.66+223.181+2066.53+207.742+2071.96+191.453C2074.18+184.786+2075.35+177.786+2077.75+171.181C2082.46+158.226+2090.01+146.325+2095.13+133.534C2098.89+124.114+2100.04+113.995+2103.81+104.575C2108.71+92.3286+2116.09+80.1719+2118.29+66.9281C2121.2+49.4651+2123.51+32.1501+2126.98+14.8015C2127.4+12.685+2129.45+11.1263+2129.88+9.0097C2131.35+1.66065+2126.59-7.97157+2132.77-14.1577C2134.19-15.5733+2154.77-28.4031+2155.94-28.6373C2158.78-29.2052+2162.58-26.5895+2164.63-28.6373C2166.15-30.1636+2160.96-31.1783+2158.84-31.5332C2155.03-32.168+2151.07-30.9871+2147.25-31.5332C2138.47-32.7875+2129.62-38.8165+2121.19-40.221C2117.38-40.8557+2113.43-39.6749+2109.6-40.221C2102.65-41.2148+2096.29-45.019+2089.33-46.0128C2064.4-49.5746+2039.23-57.9736+2014.04-60.4924C2009.24-60.9727+2004.36-60.0122+1999.56-60.4924C1989.76-61.4719+1980.4-65.3047+1970.6-66.2843C1877.22-75.6222+1783.38-79.3492+1689.7-86.5557C1651.41-89.5009+1611.91-86.3774+1573.86-83.6598C1547.93-81.8076+1521.6-85.512+1495.67-83.6598C1423.33-78.4924+1351.26-77.8679+1278.48-77.8679C1214.8-77.8679+1152.81-68.3131+1090.24-60.4924C1077-58.8377+1062.85-62.6839+1049.7-60.4924C1030.39-57.2737+1010.96-57.4409+991.779-54.7006C989.642-54.3953+988.104-52.228+985.987-51.8046C983.148-51.2367+980.139-52.3726+977.299-51.8046C960.863-48.5174+944.505-43.5082+928.069-40.221C914.049-37.4169+900.881-43.1169+887.526-43.1169C878.838-43.1169+870.15-43.1169+861.463-43.1169C858.567-43.1169+854.823-41.0692+852.775-43.1169C851.249-44.6432+854.705-46.9781+855.671-48.9087" opacity="0.997114" fill="#000000"/>
</g>
<g id="Capa 6" vectornator:layerName="Capa 6">
<path d="M829.607+29.2812C830.916+26.6632+835.996+17.1872+835.399+14.8015C834.876+12.7075+831.655+11.223+829.607+11.9056C825.512+13.2708+826.037+19.7875+823.816+23.4893C822.025+26.4738+819.814+29.1926+818.024+32.1771C808.755+47.6251+800.394+64.3495+789.065+78.5118C787.359+80.6438+784.677+81.9624+783.273+84.3037C781.702+86.9212+781.742+90.2611+780.377+92.9914C775.203+103.339+766.579+109.991+760.105+119.055C757.596+122.568+756.455+126.89+754.314+130.638C746.308+144.649+736.25+157.181+728.25+171.181C724.51+177.727+718.153+182.422+713.771+188.557C711.261+192.07+710.121+196.392+707.979+200.141C698.811+216.185+686.411+231.044+676.124+246.475C659.878+270.844+648.18+298.78+629.789+321.769C620.636+333.21+608.259+347.035+600.83+359.416C595.683+367.994+592.938+377.245+586.35+385.479C578.045+395.86+571.064+406.826+563.183+417.335C560.593+420.788+559.981+425.465+557.391+428.918C555.753+431.103+553.004+432.369+551.599+434.71C548.925+439.168+548.482+444.732+545.807+449.19C536.43+464.818+527.576+484.117+516.848+498.42C511.198+505.954+505.964+509.305+499.472+515.796C495.492+519.776+494.162+525.773+490.785+530.276C484.617+538.5+476.665+545.24+470.513+553.443C465.638+559.943+462.571+569.326+458.93+576.61C452.172+590.125+445.415+603.639+438.658+617.153C436.5+621.47+432.866+624.876+429.97+628.737C424.874+635.533+423.483+645.108+418.387+651.904C415.491+655.765+410.216+657.179+406.803+660.592C403.39+664.005+401.011+668.314+398.115+672.176C384.282+690.619+379.259+728.48+383.636+750.366C385.694+760.658+392.169+768.501+398.115+776.429C421.335+807.388+455.592+817.865+487.889+837.243C497.026+842.726+508.381+848.268+516.848+854.619C519.032+856.257+520.299+859.006+522.64+860.411C525.257+861.981+528.71+861.736+531.328+863.306C542.729+870.147+552.232+885.094+560.287+895.162C566.857+903.374+576.497+908.476+583.454+915.433C584.98+916.959+584.824+919.699+586.35+921.225C587.876+922.751+590.616+922.595+592.142+924.121C593.668+925.647+593.512+928.386+595.038+929.913C598.451+933.326+603.726+934.739+606.622+938.6C613.2+947.372+620.292+955.862+626.893+964.664C630.012+968.822+630.01+974.686+632.685+979.143C638.125+988.21+646.563+996.682+652.956+1005.21C656.573+1010.03+657.4+1018.34+661.644+1022.58C663.17+1024.11+665.91+1023.95+667.436+1025.48C671.68+1029.72+672.507+1038.03+676.124+1042.85C680.334+1048.47+683.54+1054.67+687.707+1060.23C692.97+1067.25+699.82+1073.48+705.083+1080.5C710.492+1087.71+714.136+1096.43+719.562+1103.67C722.839+1108.04+727.87+1110.88+731.146+1115.25C733.736+1118.71+734.348+1123.38+736.938+1126.84C741.033+1132.3+747.154+1135.98+751.418+1141.31C759.157+1150.99+765.923+1164.51+774.585+1173.17C781.822+1180.41+793.435+1186.23+800.648+1193.44C802.175+1194.97+802.018+1197.71+803.544+1199.23C808.002+1203.69+816.462+1206.36+820.92+1210.82C826.215+1216.11+830.48+1225.19+835.399+1231.09C840.643+1237.38+847.658+1242.07+852.775+1248.46C858.261+1255.32+860.879+1265.26+867.254+1271.63C868.781+1273.16+871.52+1273+873.046+1274.53C877.344+1278.83+877.924+1287.14+881.734+1291.9C910.194+1327.48+935.467+1365.48+962.82+1401.95C970.632+1412.36+973.319+1428.13+980.195+1439.59C991.067+1457.71+1002.35+1474.92+1014.95+1491.72C1020.04+1498.52+1021.43+1508.09+1026.53+1514.89C1032.37+1522.68+1038.06+1530.27+1043.91+1538.06C1049.76+1545.86+1052.58+1556.38+1058.39+1564.12C1061.66+1568.49+1066.69+1571.33+1069.97+1575.7C1072.56+1579.16+1072.71+1584.23+1075.76+1587.29C1078.22+1589.75+1081.99+1590.62+1084.45+1593.08C1088.69+1597.32+1089.52+1605.63+1093.14+1610.45C1100.99+1620.93+1107.61+1630.72+1113.41+1642.31C1116.17+1647.84+1121.81+1651.49+1124.99+1656.79C1130.11+1665.33+1131.45+1677.21+1136.58+1685.75C1137.98+1688.09+1140.96+1689.2+1142.37+1691.54C1146.17+1697.88+1148.3+1707.82+1151.05+1714.71C1161.97+1741.99+1174.88+1768.48+1185.81+1795.79C1189.49+1805+1195.79+1818.07+1197.39+1827.65C1199.79+1842.07+1200.75+1856.49+1203.18+1871.09C1204.34+1878.02+1208.1+1884.39+1208.97+1891.36C1210.57+1904.11+1212.66+1916.38+1214.77+1929.01C1219.28+1956.1+1232.02+1984.63+1226.35+2012.99C1225.93+2015.1+1223.88+2016.66+1223.45+2018.78C1221.89+2026.58+1222.12+2034.14+1220.56+2041.95C1218.8+2050.72+1213.2+2058.66+1211.87+2068.01C1204.47+2119.8+1188.08+2169.48+1168.43+2218.6C1160.27+2239+1146.4+2256.87+1136.58+2276.52C1135.21+2279.25+1135.25+2282.59+1133.68+2285.2C1132.27+2287.55+1129.29+2288.65+1127.89+2291C1123.59+2298.16+1121.53+2307.2+1116.3+2314.16C1114.67+2316.35+1111.92+2317.61+1110.51+2319.95C1104.33+2330.25+1100.52+2341.96+1093.14+2351.81C1089.04+2357.27+1082.92+2360.96+1078.66+2366.29C1074.62+2371.34+1071.59+2379.15+1067.07+2383.67C1065.55+2385.19+1062.81+2385.03+1061.28+2386.56C1055.9+2391.94+1052.33+2401.3+1046.8+2406.83C1044.34+2409.29+1040.57+2410.16+1038.11+2412.62C1036.59+2414.15+1036.74+2416.89+1035.22+2418.42C1033.69+2419.94+1031.11+2419.96+1029.43+2421.31C1018.81+2429.8+1010.62+2439.76+1000.47+2447.38C998.33+2448.98+984.677+2457.92+985.987+2461.86C987.384+2466.05+998.992+2464.75+1000.47+2464.75C1014.95+2464.75+1027.24+2457.1+1041.01+2453.17C1058.54+2448.16+1077.69+2439.27+1093.14+2430C1097.59+2427.33+1103.16+2426.88+1107.62+2424.21C1109.96+2422.8+1111.07+2419.82+1113.41+2418.42C1116.03+2416.85+1119.37+2416.89+1122.1+2415.52C1139.53+2406.8+1157.48+2396.6+1174.22+2386.56C1186.84+2378.99+1198.96+2370.56+1211.87+2363.39C1220.26+2358.73+1230.22+2354.7+1237.93+2348.91C1246.14+2342.76+1252.88+2334.81+1261.1+2328.64C1267.15+2324.1+1275.32+2321.6+1281.37+2317.06C1287.11+2312.76+1292.63+2306.25+1298.75+2302.58C1307.66+2297.23+1319.92+2292.99+1327.71+2285.2C1329.23+2283.68+1329.08+2280.94+1330.6+2279.41C1332.13+2277.89+1334.87+2278.04+1336.39+2276.52C1341.65+2271.26+1346.12+2262.19+1350.87+2256.24C1354.73+2251.42+1359.69+2247.29+1362.46+2241.77C1366.91+2232.87+1372.81+2219.74+1374.04+2209.91C1374.52+2206.08+1373.41+2202.13+1374.04+2198.33C1375.04+2192.3+1379.08+2187.01+1379.83+2180.95C1381.89+2164.52+1382.87+2148.22+1385.62+2131.72C1387.81+2118.58+1383.74+2104.37+1385.62+2091.18C1385.93+2089.04+1388.1+2087.5+1388.52+2085.39C1389.66+2079.71+1387.57+2073.72+1388.52+2068.01C1392.54+2043.9+1396.62+2019.98+1400.1+1995.61C1404.71+1963.39+1398.26+1928.77+1394.31+1897.15C1393.44+1890.18+1389.39+1883.85+1388.52+1876.88C1383.46+1836.41+1381.16+1795.33+1371.14+1755.25C1368.66+1745.31+1366.45+1732.72+1362.46+1723.4C1361.09+1720.2+1358.04+1717.91+1356.67+1714.71C1353.53+1707.39+1353.67+1698.99+1350.87+1691.54C1345.3+1676.69+1339.01+1662.8+1333.5+1648.1C1330.77+1640.81+1325.39+1634.79+1321.91+1627.83C1311.23+1606.46+1296.19+1587.88+1284.27+1567.02C1279.55+1558.76+1277.3+1549.26+1272.68+1540.95C1270.34+1536.73+1266.34+1533.59+1264+1529.37C1261.47+1524.82+1260.53+1519.54+1258.2+1514.89C1253.24+1504.95+1246.35+1495.59+1240.83+1485.93C1227.04+1461.81+1217.31+1435.91+1206.08+1410.64C1196.57+1389.24+1180.44+1371.09+1171.33+1349.82C1164.52+1333.94+1160.02+1316.77+1153.95+1300.59C1148.4+1285.78+1147.92+1269.07+1142.37+1254.26C1140.85+1250.21+1137.62+1246.86+1136.58+1242.67C1135.64+1238.93+1137.05+1234.92+1136.58+1231.09C1135.2+1220.08+1129.46+1210.22+1127.89+1199.23C1126.51+1189.56+1126.38+1179.97+1124.99+1170.27C1121.42+1145.29+1116.57+1120.28+1113.41+1094.98C1112.45+1087.32+1114.5+1079.46+1113.41+1071.81C1110.79+1053.51+1107.76+1035.05+1104.72+1016.79C1102.61+1004.15+1104.72+989.099+1104.72+976.247C1104.72+968.525+1103.45+960.697+1104.72+953.08C1105.22+950.069+1107.28+947.426+1107.62+944.392C1109.32+929.064+1109.09+916.059+1113.41+900.953C1119.14+880.884+1131.73+862.393+1139.47+843.035C1146.55+825.328+1149.4+805.388+1156.85+788.013C1158.22+784.813+1161.08+782.438+1162.64+779.325C1168.47+767.652+1168.35+753.431+1174.22+741.678C1182.5+725.121+1190.7+708.418+1200.29+692.447C1202.96+687.99+1203.4+682.425+1206.08+677.968C1207.48+675.626+1210.23+674.36+1211.87+672.176C1214.46+668.722+1215.07+664.046+1217.66+660.592C1224.25+651.808+1231.39+643.256+1237.93+634.529C1242.97+627.81+1245.19+618.575+1249.52+611.361C1258.41+596.538+1267.82+583.438+1275.58+567.923C1289.9+539.285+1295.5+505.967+1301.64+475.253C1303.77+464.621+1311.39+454.394+1313.23+443.398C1319+408.737+1334.83+377.022+1350.87+344.937C1358.94+328.802+1366.26+312.832+1376.94+298.602C1385.18+287.617+1387.36+270.8+1397.21+260.955C1400.62+257.542+1405.9+256.128+1408.79+252.267C1411.38+248.814+1411.53+243.736+1414.58+240.683C1418+237.271+1423.15+235.765+1426.17+231.996C1429.95+227.264+1434.3+214.262+1440.65+211.724C1449.87+208.036+1458.8+223.084+1463.81+229.1C1466.44+232.246+1469.94+234.589+1472.5+237.787C1477.76+244.357+1477.01+253.986+1481.19+260.955C1484.09+265.781+1488.1+270.095+1489.88+275.434C1499.65+304.742+1517.89+329.19+1536.21+353.624C1540.01+358.685+1539.08+362.264+1542+368.104C1546.93+377.955+1553.7+387.605+1559.38+397.063C1562.05+401.521+1562.5+407.085+1565.17+411.543C1566.58+413.884+1569.33+415.15+1570.96+417.335C1573.55+420.788+1573.7+425.866+1576.76+428.918C1578.28+430.445+1581.02+430.288+1582.55+431.814C1584.07+433.34+1583.92+436.08+1585.44+437.606C1586.97+439.132+1589.71+438.976+1591.23+440.502C1592.76+442.028+1592.6+444.768+1594.13+446.294C1599.02+451.178+1611.1+457.673+1617.3+460.773C1656.28+480.264+1696.29+507.912+1727.34+538.963C1736.06+547.684+1749.99+557.396+1756.3+567.923C1760.77+575.374+1763.41+583.638+1767.89+591.09C1770.37+595.229+1776.06+596.365+1779.47+599.778C1789.87+610.174+1795.98+625.965+1805.53+637.425C1812.07+645.268+1819.68+652.427+1825.8+660.592C1833.67+671.083+1838.38+686.235+1843.18+698.239C1845.58+704.231+1849.47+709.623+1851.87+715.614C1857.13+728.781+1859+742.803+1863.45+756.157C1865.38+761.949+1868.38+767.489+1869.24+773.533C1869.65+776.4+1868.68+779.381+1869.24+782.221C1871.7+794.524+1879.01+807.17+1880.83+819.868C1881.92+827.513+1879.56+835.418+1880.83+843.035C1881.18+845.164+1883.3+846.71+1883.72+848.827C1885.66+858.493+1883.72+870.845+1883.72+880.682C1883.72+905.188+1883.84+929.004+1880.83+953.08C1879.17+966.302+1883.02+980.485+1880.83+993.623C1877.31+1014.71+1875.18+1036.04+1872.14+1057.33C1870.25+1070.58+1873.62+1084.57+1872.14+1097.88C1871.6+1102.77+1869.79+1107.46+1869.24+1112.36C1868.28+1120.99+1870.2+1129.78+1869.24+1138.42C1864.87+1177.79+1862.04+1217.72+1857.66+1257.15C1856.28+1269.55+1859.04+1282.4+1857.66+1294.8C1854.74+1321.11+1852.24+1346.85+1848.97+1372.99C1847.31+1386.27+1850.86+1400.28+1848.97+1413.53C1840.11+1475.59+1830.29+1537.19+1820.01+1598.87C1819.06+1604.58+1820.96+1610.53+1820.01+1616.25C1818.56+1624.97+1815.47+1633.57+1814.22+1642.31C1813.27+1649+1815.33+1655.92+1814.22+1662.58C1809.69+1689.76+1806.52+1716.51+1802.64+1743.67C1799.93+1762.6+1802.12+1782.58+1799.74+1801.58C1796.59+1826.81+1785.55+1851.38+1782.37+1876.88C1779.86+1896.96+1775.96+1917.2+1773.68+1937.69C1773.14+1942.49+1774.36+1947.39+1773.68+1952.17C1772.35+1961.45+1766.22+1971.32+1764.99+1981.13C1763.33+1994.45+1761.87+2008.34+1759.2+2021.68C1758.35+2025.91+1754.25+2029.03+1753.41+2033.26C1752.84+2036.1+1754.32+2039.2+1753.41+2041.95C1752.31+2045.25+1749.17+2047.52+1747.61+2050.63C1744.01+2057.85+1742.54+2066.58+1738.93+2073.8C1734.54+2082.58+1728.89+2090.98+1724.45+2099.86C1721.95+2104.86+1716.85+2111.79+1715.76+2117.24C1715.19+2120.08+1716.33+2123.09+1715.76+2125.93C1714.4+2132.7+1709.27+2139.59+1707.07+2146.2C1704.91+2152.68+1705.51+2159.78+1704.18+2166.47C1702.75+2173.61+1696.75+2179.16+1695.49+2186.74C1694.54+2192.46+1696.44+2198.41+1695.49+2204.12C1694.17+2212.02+1691.21+2219.73+1689.7+2227.29C1687.05+2240.53+1689.7+2257.18+1689.7+2270.72C1689.7+2277.27+1687.29+2290.77+1689.7+2296.79C1690.71+2299.32+1693.85+2300.4+1695.49+2302.58C1699.36+2307.75+1702.57+2315.45+1707.07+2319.95C1708.6+2321.48+1711.14+2321.56+1712.86+2322.85C1717.81+2326.56+1720.08+2332.96+1724.45+2337.33C1728.79+2341.67+1734.58+2344.57+1738.93+2348.91C1740.45+2350.44+1740.3+2353.18+1741.82+2354.71C1743.35+2356.23+1745.89+2356.31+1747.61+2357.6C1757.96+2365.36+1766.49+2375.6+1776.57+2383.67C1783.25+2389.01+1791.93+2392.12+1799.74+2395.25C1814.21+2401.04+1829.73+2410.35+1843.18+2418.42C1848.48+2421.6+1852.36+2426.82+1857.66+2430C1860.28+2431.57+1863.73+2431.33+1866.35+2432.9C1868.69+2434.3+1869.95+2437.05+1872.14+2438.69C1880.75+2445.15+1891.79+2450.48+1901.1+2456.06C1905.56+2458.74+1910.93+2459.53+1915.58+2461.86C1922.03+2465.08+1932.62+2469.77+1938.75+2473.44C1941.09+2474.84+1942.2+2477.83+1944.54+2479.23C1956.74+2486.55+1972.29+2490.21+1985.08+2496.61C1996.55+2502.34+2005.01+2512.11+2016.94+2516.88C2030.67+2522.37+2040.75+2531.62+2054.58+2537.15C2066.2+2541.8+2079.9+2549.57+2092.23+2551.63C2101.81+2553.23+2100.45+2549.03+2109.6+2554.52C2111.95+2555.93+2112.86+2559.3+2115.4+2560.32C2118.09+2561.39+2121.24+2559.75+2124.08+2560.32C2126.2+2560.74+2127.76+2562.79+2129.88+2563.21C2140.39+2565.32+2151.28+2564.02+2161.73+2566.11C2168.62+2567.49+2182+2571.9+2182+2571.9C2182+2571.9+2172.21+2566.33+2167.52+2563.21C2162.84+2560.09+2157.55+2557.9+2153.04+2554.52C2148.68+2551.25+2145.72+2546.35+2141.46+2542.94C2131.21+2534.74+2119.86+2527.98+2109.6+2519.77C2093.65+2507.01+2079.22+2491.99+2063.27+2479.23C2060.55+2477.06+2057.04+2475.9+2054.58+2473.44C2042.76+2461.62+2033.45+2445.76+2022.73+2432.9C2007.71+2414.88+1992.79+2396.18+1982.18+2374.98C1955.1+2320.8+1947.57+2257.66+1941.64+2198.33C1939.73+2179.22+1943.76+2159.49+1941.64+2140.41C1939.94+2125.06+1937.15+2109.62+1935.85+2094.07C1934.11+2073.18+1935.85+2051.35+1935.85+2030.36C1935.85+2020.71+1934.78+2011+1935.85+2001.4C1937.87+1983.19+1943.01+1964.74+1944.54+1946.38C1945.1+1939.65+1944.06+1932.85+1944.54+1926.11C1946.13+1903.8+1951.74+1881.4+1956.12+1859.5C1958.1+1849.62+1962.16+1840.27+1964.81+1830.54C1971.24+1806.97+1973.7+1781.89+1979.29+1758.15C1981.6+1748.34+1985.01+1738.82+1987.98+1729.19C1990.59+1720.68+1991.21+1711.65+1993.77+1703.12C1995.01+1698.99+1998.19+1695.64+1999.56+1691.54C2002.67+1682.2+2003.22+1672.19+2005.35+1662.58C2007.34+1653.64+2011.41+1645.29+2014.04+1636.52C2018.23+1622.56+2019.56+1607.31+2022.73+1593.08C2027.94+1569.63+2034.25+1547.22+2037.21+1523.58C2039.28+1507.02+2046.72+1490.94+2048.79+1474.35C2049.27+1470.51+2048.24+1466.58+2048.79+1462.76C2050.68+1449.57+2057.11+1435.27+2060.37+1422.22C2067.35+1394.31+2072.73+1365.93+2080.65+1338.24C2089.14+1308.52+2098.78+1278.64+2103.81+1248.46C2106.65+1231.41+2118.33+1216.38+2121.19+1199.23C2125.39+1174.05+2134.34+1149.29+2138.56+1123.94C2140.55+1112.04+2148.16+1101.09+2150.15+1089.19C2155.74+1055.63+2164.75+1021.85+2170.42+987.831C2171.76+979.786+2177.57+972.366+2179.11+964.664C2179.67+961.824+2178.54+958.816+2179.11+955.976C2180.81+947.482+2186.1+938.407+2187.79+929.913C2190.63+915.723+2191.2+900.782+2193.59+886.474C2195.15+877.118+2191.73+866.807+2193.59+857.515C2194.01+855.398+2196.06+853.839+2196.48+851.723C2197.62+846.043+2195.53+840.06+2196.48+834.347C2197.49+828.325+2201.41+823.016+2202.27+816.972C2203.37+809.327+2201.32+801.467+2202.27+793.804C2202.77+789.855+2204.61+786.161+2205.17+782.221C2207.87+763.287+2202.8+743.287+2205.17+724.302C2206.75+711.652+2208.07+702.675+2208.07+689.551C2208.07+674.538+2206.21+658.098+2208.07+643.216C2212.01+611.675+2210.96+579.697+2210.96+547.651C2210.96+534.223+2213.18+517.507+2210.96+504.212C2210.61+502.083+2208.42+500.55+2208.07+498.42C2205.23+481.384+2204.47+463.826+2202.27+446.294C2200.04+428.425+2194.08+411.101+2190.69+394.167C2189.55+388.488+2191.64+382.505+2190.69+376.792C2189.07+367.09+2183.39+357.56+2182+347.832C2179.13+327.718+2181.62+307.085+2179.11+287.018C2178+278.187+2174.57+269.765+2173.31+260.955C2172.36+254.266+2174.43+247.349+2173.31+240.683C2172.96+238.554+2170.72+237.028+2170.42+234.892C2169.74+230.114+2171.02+225.201+2170.42+220.412C2169.22+210.802+2166+201.054+2164.63+191.453C2163.3+182.141+2166.47+171.721+2164.63+162.494C2161.58+147.24+2153.2+131.412+2150.15+116.159C2149.58+113.319+2150.72+110.311+2150.15+107.471C2147.61+94.7754+2139.26+82.4112+2135.67+69.824C2132.81+59.8261+2131.83+50.6564+2129.88+40.8648C2129.03+36.6317+2124.93+33.5143+2124.08+29.2812C2122.52+21.4761+2122.75+13.9188+2121.19+6.11378C2119.96-0.0122123+2113.73-5.13577+2112.5-11.2617C2109.09-28.3245+2110.12-46.3256+2106.71-63.3883C2102.65-83.6877+2081.81-102.77+2063.27-109.723C2058.66-111.451+2053.52-111.267+2048.79-112.619C2041.92-114.583+2035.32-119.041+2028.52-121.307C2012.38-126.686+1995.65-131.111+1979.29-135.786C1969.11-138.693+1960.5-144.463+1950.33-147.37C1930.04-153.166+1910.26-156.649+1889.51-158.954C1837.41-164.743+1785.56-169.689+1733.13-173.433C1712.22-174.927+1690.39-173.433+1669.42-173.433C1629.7-173.433+1590.24-173.857+1550.69-176.329C1528.38-177.723+1506.35-183.427+1484.09-185.017C1477.35-185.498+1470.55-184.499+1463.81-185.017C1446.32-186.363+1429.17-192.116+1411.69-193.705C1392.31-195.466+1372.97-197.363+1353.77-199.497C1340.44-200.978+1326.54-197.833+1313.23-199.497C1280.8-203.549+1247.18-204.128+1214.77-199.497C1208.08-198.541+1201.18-200.452+1194.49-199.497C1191.47-199.065+1188.83-197.032+1185.81-196.601C1176.35-195.249+1166.31-197.952+1156.85-196.601C1143.24-194.657+1129.91-192.752+1116.3-190.809C1088.93-186.898+1059.59-195.353+1032.32-190.809C1030.19-190.454+1028.66-188.268+1026.53-187.913C1017.14-186.348+1006.96-189.478+997.571-187.913C978.424-184.722+959.383-185.017+939.652-185.017C921.752-185.017+897.645-182.854+881.734-190.809C873.758-194.797+865.07-192.232+870.15-202.393" opacity="0.997114" fill="#000000"/>
</g>
<g id="Capa 2" vectornator:layerName="Capa 2" visibility="hidden">
<path d="M865.995+34.8445C856.336+25.1857+856.952+29.6264+847.045+37.5517C844.2+39.8279+836.302+42.035+833.509+42.9661C820.44+47.3224+805.205+50.3501+792.901+56.502C781.588+62.1587+771.462+69.1398+760.415+75.4522C730.593+92.4935+707.639+117.909+681.907+140.425C672.902+148.304+664.021+157.135+654.835+164.789C646.393+171.825+647.6+167.742+641.299+175.618C634.364+184.287+629.322+193.973+622.349+202.69C619.53+206.213+614.711+207.621+611.52+210.811C606.703+215.628+603.975+222.562+597.984+227.054C596.37+228.265+593.997+228.335+592.57+229.762C589.716+232.615+589.577+237.362+587.156+240.59C584.093+244.674+579.39+247.335+576.327+251.419C570.797+258.792+566.095+265.863+560.084+273.076C555.918+278.075+553.856+284.718+549.255+289.319C546.954+291.62+543.434+292.433+541.134+294.734C536.532+299.335+534.54+306.036+530.305+310.977C515.989+327.679+500.576+343.375+489.697+362.413C485.019+370.601+477.163+378.125+473.454+386.778C471.988+390.198+472.213+394.187+470.747+397.607C464.045+413.243+453.084+427.992+446.382+443.629C443.794+449.667+443.906+456.703+440.968+462.579C429.991+484.534+420.648+505.993+416.603+530.259C415.213+538.6+409.872+546.282+408.482+554.623C404.704+577.291+397.799+599.481+394.946+622.303C393.47+634.107+388.3+645.692+386.824+657.496C385.003+672.066+384.89+686.893+381.41+700.811C380.972+702.562+382.217+704.611+381.41+706.225C379.392+710.261+375.306+713.018+373.288+717.054C369.479+724.674+364.511+733.213+362.46+741.419C362.022+743.17+363.267+745.219+362.46+746.833C359.176+753.401+351.863+758.436+348.924+765.783C348.253+767.459+349.594+769.522+348.924+771.198C347.715+774.219+344.964+776.409+343.509+779.319C339.344+787.651+337.461+798.424+332.681+806.391C331.368+808.58+328.798+809.763+327.266+811.805C323.718+816.536+324.582+819.882+321.852+825.341C319.268+830.509+314.49+834.255+311.023+838.877C302.573+850.143+298.262+864.399+292.073+876.778C281.322+898.28+261.748+920.115+256.88+944.457C252.487+966.421+245.588+989.693+243.344+1012.14C241.613+1029.44+240.765+1046.56+237.929+1063.57C234.961+1081.39+237.929+1102.33+237.929+1120.42C237.929+1144.16+234.991+1170.01+237.929+1193.52C239.75+1208.08+243.344+1221.92+243.344+1236.83C243.344+1253.62+244.214+1269.03+246.051+1285.56C247.735+1300.72+244.367+1316.43+246.051+1331.58C251.07+1376.75+254.587+1421.94+259.587+1466.94C263.59+1502.97+248.161+1537.46+292.073+1556.28C302.997+1560.96+313.14+1562.97+324.559+1564.4C331.943+1565.32+338.833+1568.89+346.217+1569.82C373.497+1573.23+407.592+1567.1+432.846+1556.28C448.475+1549.58+463.329+1537.19+476.161+1526.5C489.016+1515.79+503.914+1507.43+516.769+1496.72C535.736+1480.92+549.243+1460.19+562.791+1439.87C574.506+1422.3+587.748+1408.51+595.277+1388.43C601.201+1372.64+600.692+1356.21+600.692+1339.71C600.692+1326.8+602.812+1311.82+600.692+1299.1C598.13+1283.73+594.524+1268.7+592.57+1253.08C590.065+1233.04+592.57+1211.05+592.57+1190.81C592.57+1168.01+590.043+1143.17+592.57+1120.42C593.078+1115.85+594.819+1111.47+595.277+1106.89C596.528+1094.38+594.026+1081.5+595.277+1068.99C596.643+1055.33+602.156+1042.05+603.399+1028.38C603.889+1022.99+602.801+1017.52+603.399+1012.14C604.374+1003.36+607.695+994.007+608.813+985.065C610.509+971.496+608.815+957.984+611.52+944.457C617.009+917.015+626.893+890.473+633.178+863.242C638.303+841.031+640.727+817.512+646.714+795.562C647.992+790.874+650.591+786.636+652.128+782.026C656.224+769.739+656.856+756.568+660.25+744.126C662.502+735.867+666.692+728.156+668.371+719.761C670.962+706.808+672.958+694.821+676.493+681.861C688.518+637.766+689.735+590.991+700.857+546.502C704.915+530.27+711.381+513.5+717.1+497.772C722.252+483.606+727.654+469.76+736.051+457.165C743.823+445.505+751.279+432.63+760.415+421.971C765.398+416.158+771.756+411.611+776.658+405.728C783.577+397.426+793.026+385.645+803.73+381.364C817.475+375.866+835.399+380.251+849.752+378.656C871.585+376.231+892.971+370.935+914.724+367.828C925.946+366.225+938.54+367.828+949.918+367.828C969.287+367.828+987.769+367.495+1006.77+365.121C1024.16+362.946+1041.05+365.844+1058.21+362.413C1059.97+362.059+1062.01+363.22+1063.62+362.413C1074.7+356.871+1069.51+346.961+1071.74+338.049C1074.85+325.628+1074.45+313.396+1074.45+300.148C1074.45+262.401+1069.8+220.539+1077.16+183.739C1081.13+163.855+1078.72+156.169+1096.11+143.132C1099.86+140.313+1110.21+133.873+1112.35+129.596C1113.16+127.982+1111.07+125.458+1112.35+124.181C1114.9+121.629+1119.57+124.181+1123.18+124.181" opacity="0.997114" fill="#000000"/>
<path d="M262.294+1575.23C250.899+1575.23+251.977+1583.18+246.051+1591.47C241.902+1597.28+232.906+1605.78+227.101+1610.42C218.588+1617.23+213.792+1624.92+205.443+1632.08C187.708+1647.28+169.368+1664.34+159.421+1686.22C157.059+1691.42+156.368+1697.27+154.007+1702.47C147.279+1717.27+137.587+1730.07+132.349+1745.78C127.919+1759.07+125.951+1773.1+121.521+1786.39C119.347+1792.91+115.866+1798.93+113.399+1805.34C108.833+1817.21+107.942+1830.44+99.8632+1840.53C98.112+1842.72+78.6604+1859.94+80.9129+1862.19C83.8491+1865.13+87.4905+1857.93+89.0344+1854.07C92.6155+1845.12+94.9316+1835.9+97.156+1827C97.6454+1825.04+98.9608+1823.39+99.8632+1821.58C100.766+1819.78+101.451+1814.49+102.57+1816.17C105.123+1820+104.627+1825.15+105.278+1829.71C105.533+1831.49+105.278+1833.31+105.278+1835.12C105.278+1839.63+105.278+1844.14+105.278+1848.66C105.278+1853.17+105.776+1857.71+105.278+1862.19C104.261+1871.34+100.696+1880.1+99.8632+1889.26C97.6222+1913.91+94.8942+1940.18+97.156+1965.06C98.6787+1981.81+102.668+2003.26+107.985+2019.21C110.511+2026.79+116.287+2033.29+118.813+2040.87C127.883+2068.07+146.478+2107.58+178.371+2113.96C205.54+2119.39+221.211+2059.28+227.101+2043.57C231.234+2032.55+236.263+2022.02+240.637+2011.09C243.076+2004.99+243.463+1998.17+246.051+1992.14C247.333+1989.15+250.184+1987+251.465+1984.01C254.397+1977.17+254.267+1969.32+256.88+1962.36C258.297+1958.58+261.315+1955.44+262.294+1951.53C263.169+1948.03+261.784+1944.27+262.294+1940.7C262.981+1935.89+266.755+1931.93+267.708+1927.16C269.885+1916.28+270.434+1905.43+273.123+1894.68C274.612+1888.72+271.916+1881.76+273.123+1875.73C274.619+1868.25+275.83+1864.36+275.83+1856.78C275.83+1850.94+273.885+1813.86+278.537+1810.75C281.633+1808.69+286.038+1809.71+289.366+1808.05C291.171+1807.15+292.762+1805.34+294.78+1805.34C301.301+1805.34+305.961+1814.17+308.316+1818.88C315.834+1833.91+316.056+1849.44+321.852+1864.9C324.811+1872.79+328.629+1875.78+329.974+1883.85C333.404+1904.43+335.996+1925.13+338.095+1946.11C340.532+1970.49+335.602+1992.78+343.509+2016.5C348.791+2032.34+357.646+2060.64+375.996+2065.23C389.185+2068.53+397.55+2057.21+405.775+2048.99C425.388+2029.37+424.725+1996.21+424.725+1970.48C424.725+1963.26+425.746+1955.97+424.725+1948.82C424.175+1944.97+413.707+1919.14+408.482+1921.75C406.448+1922.77+409.443+1930.05+411.189+1935.29C414.945+1946.55+420.35+1956.83+424.725+1967.77C433.603+1989.97+442.493+2015.32+459.918+2032.74C466.834+2039.66+467.663+2038.16+476.161+2038.16C497.308+2038.16+505.472+2031.13+514.062+2011.09C519.242+1999+519.868+1983.21+522.183+1970.48C527.77+1939.75+524.274+1911.16+516.769+1881.14C513.169+1866.74+507.118+1853.72+500.526+1840.53C499.972+1839.43+488.341+1818.88+492.404+1818.88C494.422+1818.88+494.073+1822.56+495.112+1824.29C496.785+1827.08+498.443+1829.91+500.526+1832.41C502.977+1835.35+506.422+1837.42+508.647+1840.53C513.159+1846.85+516.22+1854.51+522.183+1859.48C538.332+1872.94+559.935+1886.49+579.034+1894.68C584.899+1897.19+591.69+1896.34+597.984+1897.38C607.713+1899.01+617.471+1902.15+627.763+1900.09C630.857+1899.47+639.933+1892.79+641.299+1891.97C654.647+1883.96+656.545+1874.3+660.25+1859.48C664.262+1843.43+662.957+1827.26+662.957+1810.75C662.957+1787.6+659.943+1764.12+649.421+1743.08C644.58+1733.39+641.571+1722.77+635.885+1713.3C634.572+1711.11+629.329+1710.16+630.471+1707.88C632.118+1704.59+650.348+1712.58+652.128+1713.3C665.652+1718.71+683.701+1727.38+698.15+1718.71C722.563+1704.06+726.921+1682.14+733.343+1656.45C737.217+1640.95+742.697+1626.65+744.172+1610.42C744.581+1605.93+743.674+1601.37+744.172+1596.89C745.281+1586.91+748.607+1577.48+746.879+1567.11C742.849+1542.93+721.79+1526.77+708.979+1507.55C706.74+1504.19+705.91+1500.01+703.564+1496.72C695.561+1485.52+685.143+1475.05+676.493+1464.24C671.32+1457.77+664.162+1450.25+657.542+1445.29C652.713+1441.66+645.51+1438.67+641.299+1434.46C639.872+1433.03+640.019+1430.47+638.592+1429.04C635.144+1425.59+626.742+1423.12+622.349+1420.92C614.032+1416.76+604.265+1409.63+595.277+1407.38C586.221+1405.12+576.939+1403.63+568.205+1399.26C559.275+1394.8+536.733+1384.03+530.305+1377.61C528.004+1375.31+527.191+1371.79+524.89+1369.48C521.17+1365.76+515.397+1364.73+511.355+1361.36C504.618+1355.75+499.43+1347.68+492.404+1342.41C490.79+1341.2+488.417+1341.13+486.99+1339.71C480.669+1333.38+480.679+1320.16+476.161+1312.63C472.715+1306.89+468.492+1302.71+465.333+1296.39" opacity="0.997114" fill="#000000"/>
<path d="M2070.69+183.739C2069.18+180.718+2065.28+172.911+2065.28+172.911C2067.27+169.922+2078.79+169.659+2081.52+170.204C2095.05+172.91+2108.63+177.658+2122.13+181.032C2128.54+182.636+2140.99+188.56+2146.49+191.861C2148.68+193.174+2149.72+195.962+2151.91+197.275C2158.19+201.045+2167.28+201.627+2173.56+205.397C2175.75+206.71+2176.79+209.498+2178.98+210.811C2187.99+216.217+2199.75+218.942+2208.76+224.347C2217.78+229.763+2228.34+238.518+2235.83+246.005C2239.02+249.195+2243.47+250.936+2246.66+254.126C2248.08+255.553+2247.94+258.114+2249.36+259.54C2253.43+263.601+2261.55+263.601+2265.61+267.662C2267.03+269.089+2266.89+271.65+2268.31+273.076C2271.51+276.267+2275.53+278.491+2279.14+281.198C2283.97+284.82+2291.18+287.816+2295.39+292.027C2299.11+295.747+2300.22+301.454+2303.51+305.563C2315.34+320.35+2323.46+337.914+2333.29+354.292C2339.06+363.91+2346.42+371.66+2352.24+381.364C2358.31+391.492+2361.41+404.419+2368.48+413.85C2373.27+420.235+2378.92+425.047+2382.02+432.8C2386.2+443.27+2390.55+452.583+2395.55+462.579C2400.61+472.686+2401.33+484.958+2406.38+495.065C2413.96+510.216+2419.3+524.485+2422.62+541.087C2425.03+553.102+2431.7+564.008+2433.45+576.281C2434.64+584.568+2437.69+592.432+2438.87+600.645C2439.76+606.898+2437.83+613.365+2438.87+619.595C2441.61+636.068+2443.78+652.292+2446.99+668.325C2448.38+675.266+2445.6+683.041+2446.99+689.982C2447.38+691.961+2449.3+693.418+2449.7+695.397C2451.16+702.706+2449.7+712.289+2449.7+719.761C2449.7+740.516+2449.7+761.271+2449.7+782.026C2449.7+799.172+2449.7+816.317+2449.7+833.463C2449.7+838.877+2450.76+844.397+2449.7+849.706C2449.3+851.684+2447.38+853.142+2446.99+855.12C2444.56+867.268+2449.42+880.873+2446.99+893.021C2445.39+901.002+2443.17+909.399+2441.57+917.385C2439.84+926.064+2443.03+935.723+2441.57+944.457C2438.87+960.71+2436.16+976.929+2433.45+993.186C2430.03+1013.73+2434.85+1034.95+2430.75+1055.45C2429.43+1062.03+2430.75+1070.38+2430.75+1077.11C2430.75+1095.16+2430.75+1113.2+2430.75+1131.25C2430.75+1136.99+2431.85+1144.69+2430.75+1150.2C2430.35+1152.18+2428.53+1153.66+2428.04+1155.62C2426.88+1160.23+2428.04+1167.09+2428.04+1171.86C2428.04+1190.59+2429.05+1208.39+2433.45+1226C2438.97+1248.09+2427.93+1274.31+2433.45+1296.39C2438.14+1315.12+2436.16+1336.19+2436.16+1355.95C2436.16+1360.72+2435.01+1367.58+2436.16+1372.19C2438.33+1380.88+2438.87+1387.11+2438.87+1396.56C2438.87+1418.43+2441.82+1438.15+2446.99+1458.82C2449.33+1468.19+2456.93+1476.9+2460.52+1485.89C2462.95+1491.95+2464.61+1499.46+2468.65+1504.84C2470.18+1506.89+2472.75+1508.07+2474.06+1510.26C2478.18+1517.13+2477.63+1527.25+2479.47+1534.62C2481.39+1542.27+2488.39+1548.64+2490.3+1556.28C2490.74+1558.03+2489.5+1560.08+2490.3+1561.69C2493.62+1568.33+2496.22+1566.13+2501.13+1569.82C2511.86+1577.86+2521.38+1587.35+2530.91+1596.89C2531.67+1597.64+2538.85+1605.97+2541.74+1605.01C2547.36+1603.14+2542.57+1597+2544.45+1594.18C2546.69+1590.82+2552.42+1591.62+2555.28+1588.77C2557.58+1586.47+2558.39+1582.95+2560.69+1580.64C2562.12+1579.22+2564.49+1579.15+2566.1+1577.94C2576.21+1570.36+2583.07+1558.45+2593.18+1550.87C2607.74+1539.95+2623.3+1530.17+2639.2+1521.09C2647.58+1516.3+2654.93+1509.16+2663.56+1504.84C2673.92+1499.67+2696.17+1493.9+2704.17+1485.89C2711.24+1478.83+2708.08+1459.72+2709.59+1450.7C2711.21+1440.92+2718.47+1433.35+2720.41+1423.63C2723.09+1410.24+2720.26+1393.07+2717.71+1380.31C2717.31+1378.33+2715.33+1376.89+2715+1374.9C2714.41+1371.34+2715.51+1367.64+2715+1364.07C2713.71+1355.04+2709.1+1345.88+2706.88+1337C2703.96+1325.34+2701.68+1313.48+2698.76+1301.8C2695.5+1288.79+2693.22+1273.54+2687.93+1261.2C2686.65+1258.21+2683.79+1256.07+2682.51+1253.08C2679.93+1247.04+2678.9+1240.44+2677.1+1234.13C2675.1+1227.13+2675.2+1219.7+2674.39+1212.47C2673.06+1200.45+2667.76+1189.17+2666.27+1177.27C2665.82+1173.69+2666.72+1170.03+2666.27+1166.45C2664.32+1150.82+2657.68+1136.08+2655.44+1120.42C2652.01+1096.4+2656.16+1071.29+2652.73+1047.33C2649.91+1027.57+2638.37+1008.7+2631.08+990.479C2620.49+964.007+2606.85+937.003+2601.3+909.264C2596.14+883.491+2598.59+854.871+2598.59+828.048C2598.59+792.758+2597.42+757.383+2601.3+722.468C2604.02+697.939+2601.3+671.428+2601.3+646.667C2601.3+622.903+2604.01+600.112+2604.01+576.281C2604.01+561.54+2601.92+544.88+2604.01+530.259C2607.76+504.007+2609.42+478.539+2609.42+451.75C2609.42+445.258+2610.99+436.363+2609.42+430.093C2605.19+413.177+2604.72+395.789+2601.3+378.656C2600.51+374.699+2597.38+371.575+2595.88+367.828C2590.77+355.046+2584.74+342.675+2579.64+329.927C2567.28+299.026+2550.68+271.736+2533.62+243.297C2527.19+232.578+2526.4+218.628+2520.08+208.104C2518.77+205.915+2516.2+204.732+2514.67+202.69C2508.81+194.875+2508.32+182.809+2501.13+175.618C2499.71+174.191+2497.14+174.338+2495.72+172.911C2492.01+169.202+2490.31+161.193+2487.6+156.668C2484.62+151.713+2479.35+148.3+2476.77+143.132C2475.96+141.517+2477.57+139.332+2476.77+137.717C2474.01+132.201+2464.92+125.867+2460.52+121.474C2450.5+111.45+2443.31+99.2319+2430.75+91.6953C2426.58+89.1951+2421.38+88.7812+2417.21+86.2809C2410.9+82.4942+2405.15+78.2104+2398.26+75.4522C2394.36+73.8924+2388.35+72.7587+2384.72+70.0379C2379.79+66.339+2373.94+59.2295+2368.48+56.502C2366.87+55.6948+2364.82+56.9397+2363.07+56.502C2352.82+53.9411+2343.68+45.5651+2333.29+42.9661C2327.02+41.3985+2318.12+42.9661+2311.63+42.9661C2300.73+42.9661+2291.95+42.7846+2281.85+40.2589C2277.47+39.1646+2272.77+41.0006+2268.31+40.2589C2263.52+39.46+2259.49+36.0231+2254.78+34.8445C2243.97+32.1412+2233.14+29.4337+2222.29+26.723C2218.79+25.8475+2215+27.4309+2211.46+26.723C2171.21+18.6713+2127.9+25.2808+2089.64+34.8445C2086.14+35.72+2082.35+34.1366+2078.81+34.8445C2067.47+37.1128+2053.94+40.5141+2043.62+45.6732" opacity="0.997114" fill="#000000"/>
<path d="M2419.92+1499.43C2421.72+1501.23+2423.53+1503.04+2425.33+1504.84" opacity="0.997114" fill="#000000"/>
<path d="M2446.99+1518.38C2448.79+1518.38+2451.13+1519.66+2452.4+1518.38C2453.68+1517.1+2451.97+1514.72+2452.4+1512.97C2452.89+1511.01+2456.54+1506.12+2455.11+1507.55C2441.33+1521.33+2431.98+1541.27+2425.33+1558.99C2420.75+1571.21+2412.54+1580.38+2406.38+1591.47C2398.54+1605.59+2393.93+1618.27+2384.72+1632.08C2366.26+1659.77+2356.4+1690.7+2344.12+1721.42C2341.76+1727.3+2341.54+1731.97+2338.7+1737.66C2337.8+1739.47+2335.09+1741.27+2335.99+1743.08C2336.8+1744.69+2339.6+1743.08+2341.41+1743.08C2343.21+1743.08+2345.32+1744.08+2346.82+1743.08C2353.97+1738.31+2348.68+1720.57+2344.12+1716C2342.69+1714.58+2340.38+1712.18+2338.7+1713.3C2333.8+1716.56+2333.29+1733.54+2333.29+1737.66C2333.29+1752.35+2335.36+1783.05+2346.82+1794.51C2358.09+1805.78+2377.77+1792.03+2384.72+1783.68C2395.78+1770.41+2406.58+1757.25+2417.21+1743.08C2425.8+1731.62+2429.37+1717.04+2441.57+1707.88C2445.18+1705.17+2448.37+1701.78+2452.4+1699.76C2454.02+1698.95+2456.2+1700.57+2457.82+1699.76C2463.41+1696.96+2466.52+1686.81+2474.06+1694.35C2481.63+1701.92+2479.47+1714.56+2479.47+1724.13C2479.47+1750.91+2478.16+1775.48+2465.94+1799.93C2458.73+1814.33+2456.11+1828.41+2452.4+1843.24C2450.87+1849.39+2446.32+1856.07+2444.28+1862.19C2438.98+1878.1+2434.23+1892.74+2428.04+1908.21C2419.71+1929.03+2408.93+1952.64+2395.55+1970.48C2388.51+1979.87+2379.57+1991.1+2376.6+2002.96C2374.59+2011.03+2373.21+2019.24+2371.19+2027.33C2368.32+2038.81+2374.46+2049.1+2376.6+2059.82C2382.64+2090.02+2396.06+2103.44+2422.62+2119.37C2431.82+2124.89+2446.77+2132.96+2457.82+2130.2C2471.47+2126.79+2479.09+2119.66+2490.3+2111.25C2493.53+2108.83+2498.89+2109.2+2501.13+2105.84C2502.13+2104.34+2500.46+2102.1+2501.13+2100.42C2505.86+2088.59+2516.91+2077.92+2520.08+2065.23C2527.28+2036.42+2530.91+2006.47+2530.91+1975.89C2530.91+1956.04+2530.91+1936.19+2530.91+1916.33C2530.91+1909.12+2530.91+1901.9+2530.91+1894.68C2530.91+1892.87+2529.11+1889.26+2530.91+1889.26C2535.6+1889.26+2542.12+1902.4+2544.45+1905.51C2554.63+1919.09+2563.39+1935.28+2568.81+1951.53C2572.31+1962.01+2579.64+1966.87+2585.05+1975.89C2586.52+1978.34+2586.29+1981.57+2587.76+1984.01C2589.08+1986.2+2591.86+1987.24+2593.18+1989.43C2598.14+1997.71+2601.79+2007.88+2606.71+2016.5C2610.54+2023.19+2612.13+2030.94+2614.83+2038.16C2623.5+2061.27+2635.92+2085.78+2655.44+2100.42C2663.22+2106.26+2687.1+2132.44+2696.05+2130.2C2704.63+2128.06+2702.72+2115.78+2704.17+2108.54C2705.66+2101.12+2710.86+2094.05+2712.29+2086.89C2714.25+2077.12+2713.03+2066.94+2715+2057.11C2715.95+2052.34+2719.46+2048.34+2720.41+2043.57C2721.67+2037.3+2721.92+2025.22+2720.41+2019.21C2717.38+2007.08+2711.64+1995.92+2706.88+1984.01C2704.44+1977.91+2703.77+1971.22+2701.46+1965.06C2697.92+1955.62+2691.55+1947.41+2687.93+1937.99C2678.93+1914.59+2674.73+1889.94+2663.56+1867.61C2654.96+1850.4+2641.47+1836.81+2633.78+1818.88C2629.47+1808.81+2628.24+1796.69+2625.66+1786.39C2624.68+1782.48+2621.23+1779.48+2620.25+1775.56C2618.76+1769.62+2621.73+1762.56+2620.25+1756.61C2619.29+1752.78+2611.75+1732.62+2614.83+1729.54C2620.35+1724.02+2644.49+1746.22+2647.32+1748.49C2661.71+1760+2679.96+1776.28+2698.76+1780.98C2702.37+1781.88+2706.13+1782.3+2709.59+1783.68C2716.32+1786.38+2727.24+1793.1+2733.95+1786.39C2745.92+1774.42+2736.52+1755.93+2733.95+1743.08C2730.77+1727.17+2733.94+1710.52+2731.24+1694.35C2728.83+1679.85+2724.4+1667.12+2717.71+1653.74C2712.85+1644.03+2707.87+1635.2+2701.46+1626.67C2700.77+1625.74+2692.33+1618.86+2693.34+1615.84C2695.59+1609.08+2720.45+1618.55+2725.83+1618.55C2730.43+1618.55+2734.9+1620.14+2739.36+1621.25C2745.32+1622.74+2752.28+1620.05+2758.31+1621.25C2776.75+1624.94+2797.07+1625.78+2815.17+1621.25C2824.93+1618.81+2841.35+1624.79+2844.94+1610.42C2849.27+1593.12+2842.76+1574.94+2828.7+1564.4C2825.47+1561.98+2821.1+1561.41+2817.87+1558.99C2808.66+1552.08+2798+1540.91+2790.8+1531.92C2786.35+1526.36+2782.17+1517.87+2777.26+1512.97C2775.84+1511.54+2773.28+1511.68+2771.85+1510.26C2766.31+1504.72+2762.42+1496.42+2755.61+1491.31C2753.99+1490.1+2751.62+1490.03+2750.19+1488.6C2745.98+1484.39+2742.99+1477.19+2739.36+1472.36C2736.3+1468.27+2731.72+1465.51+2728.54+1461.53C2726.5+1458.99+2725.66+1455.44+2723.12+1453.41C2720.89+1451.62+2717.45+1452.17+2715+1450.7C2709.26+1447.26+2705.89+1441.65+2698.76+1439.87C2691.04+1437.94+2683.36+1435.31+2677.1+1429.04C2668.86+1420.8+2663.68+1407.5+2655.44+1399.26C2650.03+1393.85+2639.95+1390.66+2633.78+1385.73C2625.68+1379.24+2623.34+1371.8+2617.54+1364.07C2614.48+1359.99+2611.28+1355.52+2606.71+1353.24C2605.1+1352.43+2602.57+1354.52+2601.3+1353.24C2598.11+1350.05+2601.3+1344.22+2601.3+1339.71C2601.3+1335.04+2599.22+1318.67+2595.88+1315.34C2594.61+1314.06+2592.27+1315.34+2590.47+1315.34" opacity="0.997114" fill="#000000"/>
<path d="M2346.82+687.275C2347.73+689.08+2348.63+690.885+2349.53+692.689" opacity="0.997114" fill="#000000"/>
<path d="M855.167+70.0379C855.167+68.2331+855.604+66.3744+855.167+64.6235C854.677+62.6659+851.557+61.0139+852.459+59.2091C852.767+58.5944+867.568+58.9254+868.702+59.2091C878.572+61.6765+891.436+65.0605+901.189+59.2091C906.143+56.2363+910.102+51.8473+914.724+48.3804C925.479+40.3146+938.064+36.8941+944.503+24.0158C947.908+17.2067+950.775+8.4347+955.332+2.35835C956.864+0.316465+960.747-3.05601+960.747-3.05601C960.747-3.05601+949.487+5.49626+944.503+10.4799C938.051+16.9327+935.263+24.2956+925.553+26.723C922.088+27.5893+912.775+27.5893+909.31+26.723C905.596+25.7944+904.374+20.7251+901.189+18.6014C897.798+16.3413+887.704+19.1014+884.945+21.3086C872.484+31.2779+859.298+43.7748+849.752+56.502C848.541+58.1162+848.472+60.4895+847.045+61.9163C845.618+63.3431+843.057+66.0503+841.631+64.6235C840.204+63.1967+843.435+61.0139+844.338+59.2091C845.24+57.4044+846.007+55.525+847.045+53.7948C848.719+51.0048+850.655+48.3804+852.459+45.6732C859.252+35.4848+865.598+21.7058+874.117+13.1871C875.544+11.7603+878.104+11.9067+879.531+10.4799C880.958+9.05308+880.812+6.49234+882.238+5.06553C892.539-5.23506+906.929-8.60073+920.139-13.8847C925.493-16.0264+930.801-20.611+936.382-22.0063C939.884-22.8817+943.709-21.1308+947.211-22.0063C964.091-26.2264+979.819-37.2152+995.94-43.6637C1016.3-51.8091+1037.35-58.37+1058.21-65.3212C1081.99-73.2507+1106.72-78.4923+1131.3-81.5642C1138.95-82.5206+1145.74-86.9786+1152.96-89.6858C1164.56-94.0389+1176.26-93.6141+1188.15-95.1001C1199.94-96.5737+1211.54-101.91+1223.34-103.222C1227.83-103.72+1232.39-102.773+1236.88-103.222C1249.74-104.507+1262.07-109.032+1274.78-111.343C1281.94-112.645+1289.38-112.286+1296.44-114.05C1311.59-117.839+1327.11-124.796+1342.46-127.586C1346.9-128.393+1351.51-127.137+1355.99-127.586C1369.66-128.953+1382.93-134.465+1396.6-135.708C1401.99-136.198+1407.45-135.218+1412.85-135.708C1439.13-138.097+1464.99-147.047+1491.35-149.244C1515.74-151.276+1540.11-152.224+1564.45-154.658C1577.85-155.998+1591.65-153.318+1605.06-154.658C1629.33-157.085+1651.14-157.696+1675.44-154.658C1691.36-152.669+1708.36-157.293+1724.17-154.658C1726.99-154.189+1729.48-152.42+1732.29-151.951C1745.12-149.813+1760.29-152.396+1772.9-149.244C1783.34-146.633+1796.09-145.39+1805.39-138.415C1807.43-136.884+1808.52-134.142+1810.8-133.001C1812.42-132.194+1814.46-133.438+1816.22-133.001C1821.73-131.623+1830.56-128.334+1835.17-124.879C1838.78-122.172+1841.81-118.433+1845.99-116.758C1854.26-113.451+1862.11-109.227+1870.36-105.929C1874.63-104.22+1879.62-104.931+1883.9-103.222C1891.44-100.202+1898-92.7054+1905.55-89.6858C1907.23-89.0155+1909.29-90.3561+1910.97-89.6858C1917.47-87.0835+1926.92-80.4256+1932.62-76.1499C1936.48-73.2563+1945.65-65.8292+1948.87-62.614C1950.29-61.1872+1950.15-58.6264+1951.57-57.1996C1958.08-50.696+1967.09-45.9265+1973.23-38.2494C1975.26-35.7087+1976.35-32.4285+1978.65-30.1278C1981.5-27.2742+1986.62-27.5671+1989.48-24.7135C1990.9-23.2866+1990.76-20.7259+1992.18-19.2991C1995.4-16.0839+2004.57-8.65676+2008.43-5.76319C2013.26-2.14095+2020.46+0.854877+2024.67+5.06553C2027.52+7.91915+2027.66+12.6657+2030.08+15.8943C2035.54+23.1751+2040.87+30.2709+2046.33+37.5517C2049.9+42.3163+2050.87+49.0301+2054.45+53.7948C2066.99+70.5237+2082.89+80.908+2092.35+99.8168C2095.66+106.445+2101.39+114.31+2103.18+121.474C2104.08+125.084+2104.22+128.975+2105.88+132.303C2107.69+135.913+2109.49+139.522+2111.3+143.132C2112.2+144.937+2114.01+150.564+2114.01+148.546C2114.01+137.158+2102.35+127.366+2100.47+116.06C2096.53+92.3978+2087.83+70.9202+2078.81+48.3804C2070.24+26.939+2062.32+9.1964+2043.62-5.76319C2035.87-11.9598+2027.51-14.3446+2019.25-19.2991C2017.07-20.6123+2016.12-23.572+2013.84-24.7135C2012.23-25.5206+2010.2-24.3595+2008.43-24.7135C2001.11-26.1759+1993.41-29.5124+1986.77-32.835C1981.35-35.5422+1975.94-38.2494+1970.52-40.9565C1968.72-41.8589+1963.68-42.2369+1965.11-43.6637C1969.24-47.7942+1975.29-41.7958+1978.65-40.9565C1987.56-38.7273+1996.82-37.3224+2005.72-35.5422C2013.49-33.9888+2020.54-28.13+2027.38-24.7135C2035.09-20.8569+2044.38-18.2994+2051.74-13.8847C2058.31-9.94004+2064.12-4.29357+2070.69-0.348832C2073.14+1.11934+2076.37+0.890174+2078.81+2.35835C2087.55+7.59818+2097.36+18.9644+2103.18+26.723C2107.74+32.8048+2113.68+35.9566+2119.42+40.2589C2128.5+47.0698+2133.75+57.2938+2141.08+64.6235C2145.14+68.6843+2150.55+71.3914+2154.61+75.4522C2157.8+78.6427+2159.13+83.5738+2162.73+86.2809C2164.35+87.4916+2166.72+87.5613+2168.15+88.9881C2175.4+96.2423+2175.93+117.415+2173.56+126.889C2172.17+132.461+2169.54+137.559+2168.15+143.132C2167.03+147.596+2167.81+152.722+2165.44+156.668C2164.13+158.856+2161.17+159.799+2160.03+162.082C2159.22+163.696+2160.38+165.727+2160.03+167.496C2158.77+173.794+2156.12+180.41+2154.61+186.447C2151.56+198.65+2144.08+209.643+2141.08+221.64C2139.96+226.104+2140.43+231.06+2138.37+235.176C2127.79+256.333+2114.27+280.122+2108.59+302.855C2107.61+306.771+2104.16+309.769+2103.18+313.684C2101.38+320.886+2099.57+328.108+2097.76+335.342C2094.79+347.232+2100.73+361.352+2097.76+373.242C2094+388.292+2092.68+404.057+2089.64+419.264C2087.77+428.637+2081.83+437.277+2078.81+446.336C2074.94+457.941+2068.2+469.826+2065.28+481.529C2064.84+483.28+2065.95+485.268+2065.28+486.944C2061.31+496.85+2051.64+506.311+2049.03+516.723C2048.6+518.474+2049.7+520.461+2049.03+522.137C2044.98+532.278+2036.85+541.772+2032.79+551.916C2032.12+553.592+2033.46+555.655+2032.79+557.33C2026.96+571.903+2015.04+585.025+2011.13+600.645C2008.25+612.189+2005+623.906+2003.01+635.839C2001.62+644.18+1996.28+651.862+1994.89+660.203C1988.01+701.496+1981.16+742.944+1975.94+784.733C1975.02+792.117+1971.45+799.007+1970.52+806.391C1970.08+809.973+1970.97+813.638+1970.52+817.22C1969.26+827.355+1963.83+837.037+1962.4+846.999C1961.89+850.572+1962.91+854.254+1962.4+857.827C1960.39+871.891+1951.22+884.295+1948.87+898.435C1944.94+921.979+1939.95+945.705+1935.33+968.822C1934.27+974.131+1936.39+979.756+1935.33+985.065C1932.51+999.19+1930.03+1014.3+1927.21+1028.38C1924.06+1044.11+1927.21+1063.7+1927.21+1079.82C1927.21+1096.7+1923.92+1117.5+1927.21+1133.96C1930.09+1148.38+1929.74+1162.86+1932.62+1177.27C1934.36+1185.95+1930.89+1195.67+1932.62+1204.35C1934.06+1211.55+1936.25+1218.85+1938.04+1226C1940.37+1235.34+1936.15+1246.33+1938.04+1255.78C1938.43+1257.76+1940.26+1259.24+1940.75+1261.2C1944.36+1275.64+1937.14+1292.78+1940.75+1307.22C1944.48+1322.16+1942.43+1338.3+1946.16+1353.24C1947.86+1360.04+1944.46+1368.1+1946.16+1374.9C1949.71+1389.09+1951.83+1403.49+1954.28+1418.21C1956.73+1432.88+1950.68+1449.84+1954.28+1464.24C1958.64+1481.68+1958.03+1500.9+1962.4+1518.38C1964.31+1526.01+1960.86+1535.03+1962.4+1542.74C1962.8+1544.72+1964.71+1546.18+1965.11+1548.16C1966.57+1555.45+1965.11+1565.01+1965.11+1572.52C1965.11+1590.57+1965.11+1608.62+1965.11+1626.67C1965.11+1632.08+1964.05+1637.6+1965.11+1642.91C1966.21+1648.39+1969.16+1653.71+1970.52+1659.15C1972.45+1666.87+1971.67+1675.71+1973.23+1683.52C1974.35+1689.11+1977.71+1694.13+1978.65+1699.76C1980.86+1713.06+1979.14+1727.06+1981.35+1740.37C1982.96+1749.99+1987.58+1757.94+1989.48+1767.44C1990.18+1770.98+1988.6+1774.77+1989.48+1778.27C1991.28+1785.5+1993.09+1792.72+1994.89+1799.93C1995.87+1803.84+1999.33+1806.84+2000.3+1810.75C2004.58+1827.86+2009.5+1844.82+2013.84+1862.19C2015.43+1868.54+2019.51+1875.02+2021.96+1881.14C2025.55+1890.11+2028.23+1901.67+2030.08+1910.92C2032.18+1921.39+2030.69+1932.92+2032.79+1943.41C2034.85+1953.72+2038.91+1963.19+2040.91+1973.19C2041.8+1977.61+2039.82+1982.34+2040.91+1986.72C2044.22+1999.94+2045.73+2014.11+2049.03+2027.33C2051.62+2037.69+2049.15+2049.44+2051.74+2059.82C2057.84+2084.23+2063.04+2108.18+2067.98+2132.91C2068.87+2137.33+2067.1+2142.02+2067.98+2146.45C2068.94+2151.21+2072.44+2155.22+2073.4+2159.98C2074.11+2163.52+2072.69+2167.27+2073.4+2170.81C2076.49+2186.27+2084.38+2201.49+2086.93+2216.83C2087.53+2220.39+2086.49+2224.08+2086.93+2227.66C2088.32+2238.76+2093.24+2249.24+2095.06+2260.15C2100.32+2291.75+2106.03+2323.28+2111.3+2354.9C2113.05+2365.43+2109.54+2376.85+2111.3+2387.38C2116.63+2419.37+2109.97+2452.58+2114.01+2484.84C2115.93+2500.25+2120.21+2515.5+2122.13+2530.86C2125.05+2554.27+2127.65+2577.89+2130.25+2601.25C2131.25+2610.22+2129.35+2619.34+2130.25+2628.32C2131.08+2636.6+2134.63+2644.43+2135.66+2652.69C2140.08+2688.01+2144.2+2723.26+2149.2+2758.27C2150.09+2764.52+2148.16+2770.99+2149.2+2777.22C2152.93+2799.58+2152.87+2822.67+2157.32+2844.9C2158.35+2850.06+2156.05+2856.04+2157.32+2861.14C2157.81+2863.1+2159.54+2864.6+2160.03+2866.56C2161.73+2873.35+2158.33+2881.42+2160.03+2888.21C2167.25+2917.1+2162.73+2952.68+2162.73+2982.96C2162.73+2987.57+2164.33+2992.04+2165.44+2996.5C2166.72+3001.6+2164.17+3007.65+2165.44+3012.74C2165.93+3014.7+2168.79+3016.24+2168.15+3018.16C2166.31+3023.68+2145.08+3019.16+2141.08+3018.16C2131.85+3015.85+2123.7+3009.27+2114.01+3007.33C2101.26+3004.78+2083.67+3001.91+2070.69+3001.91C2029.63+3001.91+1987.04+2998.51+1946.16+3001.91C1923.57+3003.8+1901.12+3008.42+1878.48+3010.04C1865.85+3010.94+1853.12+3010.95+1840.58+3012.74C1814.14+3016.52+1788.62+3019.21+1762.07+3020.86C1740.33+3022.22+1718.84+3027.63+1697.1+3028.99C1658.39+3031.41+1619.4+3029.27+1580.69+3031.69C1566.03+3032.61+1551.81+3037.11+1537.38+3039.81C1516.07+3043.81+1493.9+3045.07+1472.4+3047.94C1458.87+3049.74+1445.43+3052.5+1431.8+3053.35C1399.45+3055.37+1366.66+3051.04+1334.34+3053.35C1322.33+3054.21+1310.82+3058.55+1299.14+3061.47C1273.54+3067.87+1244.21+3072.62+1217.93+3075.01C1204.53+3076.23+1190.69+3073.52+1177.32+3075.01C1157.55+3077.2+1137.23+3079.89+1117.76+3083.13C1102.14+3085.73+1084.12+3082.94+1069.03+3080.42C1050.68+3077.36+1030.42+3084.07+1012.18+3080.42C989.792+3075.94+969.564+3060.53+947.211+3056.06C935.756+3053.77+923.555+3055.66+912.017+3053.35C910.039+3052.95+908.582+3051.04+906.603+3050.64C887.993+3046.92+868.111+3052.53+849.752+3047.94C839.035+3045.26+839.296+3031.27+836.216+3023.57C835.008+3020.55+832.476+3018.24+830.802+3015.45C828.087+3010.92+826.389+3002.92+822.68+2999.21C821.254+2997.78+818.385+2998.18+817.266+2996.5C814.025+2991.64+821.637+2984.43+822.68+2980.26C826.694+2964.2+827.548+2947.8+830.802+2931.53C842.808+2871.5+850.903+2810.89+874.117+2752.85C880.175+2737.71+884.653+2722.05+890.36+2706.83C892.973+2699.86+892.843+2692.01+895.774+2685.17C906.723+2659.63+923.7+2635.97+933.675+2609.37C939.082+2594.95+944.51+2580.48+949.918+2566.06C952.752+2558.5+957.913+2551.96+960.747+2544.4C968.348+2524.13+972.887+2502.56+979.697+2482.14C987.62+2458.37+998.882+2435.41+1006.77+2411.75C1011.95+2396.21+1011.08+2378.22+1017.6+2363.02C1018.88+2360.03+1021.73+2357.89+1023.01+2354.9C1031.47+2335.16+1035.79+2310.71+1039.25+2289.93C1042.48+2270.59+1052.7+2252.64+1055.5+2233.08C1056.95+2222.89+1058.01+2213.44+1060.91+2203.3C1067.42+2180.54+1076.07+2158.38+1082.57+2135.62C1089.9+2109.95+1094.47+2083.14+1098.81+2057.11C1099.61+2052.31+1103.27+2048.34+1104.23+2043.57C1109.13+2019.07+1111.93+1992.79+1115.06+1967.77C1115.98+1960.39+1119.42+1953.48+1120.47+1946.11C1121.24+1940.75+1119.58+1935.21+1120.47+1929.87C1123.85+1909.59+1125.78+1885.72+1123.18+1864.9C1121.25+1849.48+1118.1+1834.08+1115.06+1818.88C1111.91+1803.16+1103.23+1788.32+1098.81+1772.85C1092.38+1750.33+1084.92+1723.41+1074.45+1702.47C1072.99+1699.56+1070.32+1697.34+1069.03+1694.35C1065.08+1685.12+1064.87+1673.8+1060.91+1664.57C1059.63+1661.58+1056.95+1659.36+1055.5+1656.45C1050.44+1646.33+1047.77+1633.63+1041.96+1623.96C1038.13+1617.58+1035.31+1620.46+1033.84+1613.13C1031+1598.9+1028.1+1584.08+1025.72+1569.82C1024.47+1562.3+1019.04+1555.36+1017.6+1548.16C1017.07+1545.5+1018.04+1542.71+1017.6+1540.04C1016.21+1531.72+1010.67+1524.02+1009.48+1515.67C1007.31+1500.51+1005.97+1484.89+1004.06+1469.65C1000.76+1443.22+990.769+1417.7+987.818+1391.14C984.826+1364.21+985.765+1336.82+982.404+1309.93C979.883+1289.76+971.724+1270.36+968.868+1250.37C960.683+1193.07+946.257+1137.16+939.089+1079.82C936.12+1056.07+926.207+1032.96+922.846+1009.43C919.437+985.563+925.247+960.342+922.846+936.336C922.388+931.757+920.555+927.382+920.139+922.8C917.86+897.735+922.229+872.082+920.139+846.999C919.311+837.066+917.432+827.187+917.432+817.22C917.432+797.834+919.574+776.942+917.432+757.662C912.506+713.33+906.105+669.255+901.189+625.01C898.606+601.771+900.599+577.912+898.481+554.623C897.169+540.187+894.276+525.816+893.067+511.308C891.648+494.28+894.378+476.91+893.067+459.872C891.814+443.588+889.132+427.414+887.653+411.143C886.168+394.815+887.258+378.602+884.945+362.413C882.756+347.087+877.82+331.206+874.117+316.391C872.938+311.677+869.501+307.649+868.702+302.855C867.961+298.405+869.587+293.744+868.702+289.319C866.875+280.182+865.056+271.087+863.288+262.248C861.906+255.336+862.818+244.931+863.288+237.883C864.011+227.041+865.011+216.219+865.995+205.397C867.887+184.585+871.41+169.01+871.41+148.546C871.41+137.092+874.188+121.759+871.41+110.646C868.354+98.4224+866.082+80.4323+868.702+67.3307C870.131+60.1898+876.665+56.82+879.531+51.0876C880.338+49.4733+878.861+47.3489+879.531+45.6732C880.739+42.6523+883.737+40.5726+884.945+37.5517C885.616+35.876+884.508+33.8882+884.945+32.1373C888.294+18.7414+889.725+0.498067+898.481-11.1776C908.187-24.1185+920.878-44.8953+933.675-54.4924C941.289-60.2033+952.213-63.7615+960.747-68.0283C968.433-71.8716+976.514-79.8449+985.111-81.5642C987.766-82.0952+990.578-81.0333+993.233-81.5642C997.998-82.5173+1002-86.0256+1006.77-86.9786C1011.19-87.8635+1015.85-86.2368+1020.3-86.9786C1034.75-89.3863+1049.05-90.5719+1063.62-92.393C1074.61-93.7674+1085.11-99.1401+1096.11-100.515C1129.42-104.679+1162.81-107.625+1196.27-111.343C1205.42-112.359+1214.18-115.924+1223.34-116.758C1228.74-117.248+1234.19-116.308+1239.59-116.758C1260.52-118.502+1280.89-125.839+1301.85-127.586C1337.32-130.542+1372.1-136.075+1407.43-141.122C1443.26-146.241+1479.63-154.788+1515.72-157.365C1541.01-159.172+1566.23-160.835+1591.52-162.78C1620.91-165.04+1651.83-163.298+1680.86-160.072C1709.39-156.902+1739.04-160.922+1767.49-157.365C1787.53-154.86+1807.5-146.008+1827.04-141.122C1835.12-139.104+1843.15-136.74+1851.41-135.708C1854.99-135.26+1858.77-136.699+1862.24-135.708C1865.37-134.814+1867.45-131.749+1870.36-130.293C1877.8-126.571+1887.6-126.448+1894.72-122.172C1896.91-120.859+1898.1-118.289+1900.14-116.758C1906.42-112.047+1915.05-109.975+1921.8-105.929C1932.6-99.4477+1942.46-91.7057+1954.28-86.9786C1966.82-81.9631+1981.66-76.0888+1994.89-73.4427C1999.77-72.4657+2006.61-72.5463+2011.13-70.7355C2020.6-66.9498+2017.57-65.2336+2024.67-59.9068C2029.89-55.9902+2038.07-52.407+2043.62-49.0781C2050.59-44.8958+2058.31-46.1826+2065.28-40.9565C2074.95-33.7041+2077.29-20.4247+2084.23-11.1776C2089.14-4.62812+2095.65+2.02082+2097.76+10.4799C2098.2+12.2308+2096.96+14.28+2097.76+15.8943C2098.9+18.1771+2101.65+19.2667+2103.18+21.3086C2108.53+28.4432+2109.58+38.2996+2114.01+45.6732C2115.32+47.8619+2117.89+49.0457+2119.42+51.0876C2124.51+57.8736+2127.82+65.9026+2132.96+72.745C2135.38+75.9735+2135.52+80.7201+2138.37+83.5738C2139.8+85.0006+2142.67+84.602+2143.78+86.2809C2145.79+89.2843+2142.91+93.6079+2143.78+97.1097C2145.92+105.667+2149.2+115.249+2149.2+124.181" opacity="0.997114" fill="#000000"/>
<path d="M2392.84-127.586C2385.15-131.435+2388.86-128.867+2382.02-135.708" opacity="0.997114" fill="#000000"/>
<path d="M2317.04-260.238C2317.85-258.624+2317.48-263.902+2317.04-265.653C2316.55-267.61+2314.34-273.085+2314.34-271.067C2314.34-267.346+2315.38-263.566+2317.04-260.238Z" opacity="0.997114" fill="#000000"/>
<path d="M2059.86+838.877C2065.28+856.023+2070.69+873.168+2076.1+890.314" opacity="0.997114" fill="#000000"/>
</g>
<g id="Capa 3" vectornator:layerName="Capa 3" visibility="hidden">
<path d="M-444.28+703.518C-448.792+704.42-453.392+702.075-457.816+700.811C-459.756+700.257-463.23+700.122-463.23+698.104C-463.23+696.299-459.621+698.104-457.816+698.104C-453.304+698.104-448.469+696.428-444.28+698.104C-442.604+698.774-442.51+703.164-444.28+703.518Z" opacity="0.997114" fill="#000000"/>
<path d="M838.923-8.47037C842.265-1.78632+839.57+2.72489+838.923+10.4799C837.61+26.2399+836.038+41.3275+833.509+56.502C831.839+66.5229+833.509+78.9183+833.509+88.9881C833.509+113.839+835.977+140.105+833.509+164.789C830.524+194.641+822.965+224.203+819.973+254.126C818.702+266.833+818.537+279.319+817.266+292.027C815.617+308.517+808.486+324.365+806.437+340.756C805.205+350.614+805.135+360.701+803.73+370.535C801.233+388.012+795.381+404.615+792.901+421.971C789.95+442.627+777.97+461.432+773.951+481.529C770.666+497.953+768.548+513.947+765.83+530.259C763.563+543.857+754.682+558.128+749.586+570.866C747.878+575.138+747.782+579.89+746.879+584.402C744.617+595.712+738.318+605.551+736.051+616.888C732.73+633.489+722.589+648.929+719.807+665.618C714.993+694.502+708.411+723.166+703.564+752.247C702.765+757.041+699.103+761.018+698.15+765.783C697.088+771.092+699.212+776.717+698.15+782.026C697.754+784.005+695.839+785.462+695.443+787.441C692.466+802.323+694.91+820.951+692.736+836.17C684.011+897.24+685.834+960.015+673.785+1020.26C670.976+1034.31+673.785+1051.87+673.785+1066.28C673.785+1097.36+673.183+1128.24+679.2+1158.32C681.647+1170.56+679.2+1186.45+679.2+1198.93C679.2+1224.32+677.785+1250+681.907+1274.73C683.81+1286.15+680.27+1298.47+681.907+1309.93C683.195+1318.94+686.033+1327.98+687.321+1337C689.147+1349.78+687.508+1365.41+692.736+1377.61C694.017+1380.6+696.868+1382.74+698.15+1385.73C700.738+1391.77+701.487+1398.45+703.564+1404.68C708.802+1420.39+714.398+1434.49+717.1+1450.7C719.887+1467.42+730.052+1482.97+733.343+1499.43C738.034+1522.88+747.029+1546.13+752.294+1569.82C758.202+1596.4+760.74+1625.04+768.537+1651.03C769.933+1655.69+772.672+1659.88+773.951+1664.57C781.056+1690.62+779.423+1720.65+790.194+1745.78C791.476+1748.77+794.153+1750.99+795.609+1753.9C810.232+1783.15+813.068+1820.56+825.388+1851.36C831.086+1865.61+841.778+1879.32+844.338+1894.68C847.97+1916.47+854.242+1937.86+857.874+1959.65C858.673+1964.44+862.489+1968.39+863.288+1973.19C863.881+1976.75+862.778+1980.44+863.288+1984.01C864.217+1990.52+867.888+1996.45+868.702+2002.96C872.797+2035.72+878.523+2068.31+884.945+2100.42C886.847+2109.93+892.373+2116.29+895.774+2124.79C896.444+2126.46+895.336+2128.45+895.774+2130.2C897.207+2135.93+902.463+2140.71+903.896+2146.45C904.798+2150.05+904.689+2154.08+906.603+2157.27C909.917+2162.8+915.792+2169.67+917.432+2176.22C921.469+2192.37+925.019+2208.75+928.26+2224.95C929.052+2228.91+932.696+2231.87+933.675+2235.78C934.791+2240.25+935.48+2244.81+936.382+2249.32C938.827+2261.54+937.035+2274.9+939.089+2287.22C945.475+2325.54+947.211+2364.24+947.211+2403.63C947.211+2423.48+947.211+2443.33+947.211+2463.19C947.211+2467.96+948.364+2474.82+947.211+2479.43C942.076+2499.97+941.796+2522.71+941.796+2544.4C941.796+2551.45+943.521+2561.87+941.796+2568.77C938.48+2582.03+925.523+2593.28+922.846+2606.67C922.315+2609.32+923.377+2612.13+922.846+2614.79C920.161+2628.21+914.729+2641.84+912.017+2655.4C908.408+2673.44+916.476+2694.41+912.017+2712.25C911.039+2716.16+907.582+2719.16+906.603+2723.07C904.211+2732.64+903.621+2743.13+901.189+2752.85C899.074+2761.31+892.565+2767.96+887.653+2774.51C884.496+2778.72+883.252+2784.33+879.531+2788.05C877.23+2790.35+873.71+2791.16+871.41+2793.46C869.983+2794.89+870.129+2797.45+868.702+2798.88C863.719+2803.86+857.963+2808.01+852.459+2812.41C847.114+2816.69+839.392+2817.59+833.509+2820.53C821.903+2826.34+810.32+2834.68+798.316+2839.48C796.64+2840.15+794.577+2838.81+792.901+2839.48C786.876+2841.89+780.019+2847.28+773.951+2850.31C766.357+2854.11+756.662+2856.9+749.586+2861.14C747.398+2862.45+746.214+2865.02+744.172+2866.56C733.707+2874.4+722.004+2879.96+711.686+2888.21C704.866+2893.67+701.365+2901.24+695.443+2907.16C687.786+2914.82+676.028+2921.16+668.371+2928.82C666.944+2930.25+667.091+2932.81+665.664+2934.23C664.237+2935.66+661.864+2935.73+660.25+2936.94C652.164+2943.01+646.678+2952.54+638.592+2958.6C636.978+2959.81+634.605+2959.88+633.178+2961.31C629.117+2965.37+626.41+2970.78+622.349+2974.84C618.443+2978.75+611.191+2983.13+606.106+2985.67C604.301+2986.57+601.33+2986.46+600.692+2988.38C599.001+2993.45+611.233+2998.46+614.227+2999.21C630.516+3003.28+645.889+3004.62+662.957+3004.62C684.756+3004.62+709.118+3007.7+730.636+3004.62C743.362+3002.8+755.675+2998.34+768.537+2996.5C774.79+2995.61+781.219+2997.28+787.487+2996.5C810.011+2993.68+832.925+2992.09+855.167+2988.38C860.507+2987.49+866.05+2989.14+871.41+2988.38C891.402+2985.52+911.208+2983.55+930.968+2980.26C937.056+2979.24+943.861+2981.47+949.918+2980.26C952.716+2979.7+955.241+2978.11+958.039+2977.55C965.775+2976+974.759+2979.46+982.404+2977.55C984.362+2977.06+985.84+2975.24+987.818+2974.84C1004.17+2971.57+1023.1+2978.88+1039.25+2974.84C1041.21+2974.35+1042.71+2972.62+1044.67+2972.14C1051.46+2970.44+1059.53+2973.83+1066.33+2972.14C1076.92+2969.49+1092.86+2966.59+1104.23+2969.43C1117.28+2972.69+1132.1+2975.65+1142.13+2985.67C1148.05+2991.59+1145.94+3002.19+1155.66+3004.62C1162.07+3006.22+1166.25+3003.33+1171.91+3001.91C1182.9+2999.17+1196.98+2994.45+1207.1+2988.38C1218.99+2981.25+1228.82+2958.3+1231.46+2945.06C1234.55+2929.62+1237.38+2901.53+1234.17+2885.51C1232.52+2877.24+1229.97+2869.63+1228.76+2861.14C1226.81+2847.51+1226.6+2833.57+1223.34+2820.53C1221.43+2812.89+1224.89+2803.9+1223.34+2796.17C1218.84+2773.65+1215.31+2750.51+1209.81+2728.49C1208.37+2722.76+1203.12+2717.98+1201.69+2712.25C1199.46+2703.33+1196.2+2694.4+1193.56+2685.17C1179.02+2634.28+1167.85+2582.98+1158.37+2530.86C1154.8+2511.25+1149.52+2491.12+1147.54+2471.31C1140.6+2401.89+1144.83+2330.06+1144.83+2260.15C1144.83+2240.63+1146.77+2219.98+1144.83+2200.59C1142.68+2179+1137.58+2157.07+1134.01+2135.62C1130.61+2115.21+1128.62+2093.31+1123.18+2073.35C1119.69+2060.56+1113.45+2048.16+1109.64+2035.45C1103.84+2016.1+1100.99+1995.45+1096.11+1975.89C1085.45+1933.27+1076.52+1891.69+1071.74+1848.66C1069.66+1829.93+1073.45+1810.57+1071.74+1791.8C1065.99+1728.55+1067.52+1662.88+1071.74+1599.59C1074+1565.67+1071.74+1530.74+1071.74+1496.72C1071.74+1468.75+1071.74+1440.77+1071.74+1412.8C1071.74+1403.94+1073.23+1391.96+1071.74+1383.02C1069.48+1369.44+1065.57+1356.03+1063.62+1342.41C1060.29+1319.14+1058.84+1295.39+1055.5+1272.03C1054.33+1263.84+1050.42+1255.26+1047.38+1247.66C1039.77+1228.66+1033.38+1207.92+1028.43+1188.1C1025.41+1176.05+1024.72+1164.89+1023.01+1152.91C1020.66+1136.43+1011.56+1120.86+1009.48+1104.18C1006.12+1077.32+1006.77+1050.17+1006.77+1022.97C1006.77+1009.74+1005.31+995.475+1006.77+982.358C1009.22+960.314+1022.14+941.062+1028.43+920.093C1029.75+915.685+1029.68+910.922+1031.13+906.557C1033.69+898.9+1038.78+892.318+1041.96+884.899C1044.55+878.861+1044.79+871.987+1047.38+865.949C1048.66+862.958+1051.51+860.818+1052.79+857.827C1055.72+850.988+1055.27+843.01+1058.21+836.17C1059.49+833.179+1062.34+831.039+1063.62+828.048C1069.28+814.83+1074.13+800.828+1079.86+787.441C1083.19+779.676+1084.21+770.626+1087.98+763.076C1094.85+749.345+1102.78+736.2+1109.64+722.468C1112.71+716.321+1114.35+709.485+1117.76+703.518C1126.82+687.675+1133.9+671.246+1142.13+654.789C1144.46+650.116+1149.23+643.645+1150.25+638.546C1152.06+629.498+1147.69+632.032+1152.96+625.01C1154.49+622.968+1157.23+621.878+1158.37+619.595C1159.18+617.981+1157.93+615.932+1158.37+614.181C1161.12+603.185+1169.67+591.573+1174.61+581.695C1175.89+579.143+1175.85+576.02+1177.32+573.573C1178.63+571.385+1181.42+570.348+1182.74+568.159C1186.51+561.876+1187.09+552.785+1190.86+546.502C1192.17+544.313+1194.74+543.129+1196.27+541.087C1200.49+535.458+1202.71+527.621+1207.1+522.137C1213.82+513.742+1222.02+506.188+1228.76+497.772C1236.86+487.648+1242.32+475.411+1250.41+465.286C1259.71+453.666+1268.64+441.894+1277.49+430.093C1298.34+402.282+1304.08+365.596+1328.92+340.756C1332.98+336.695+1341.11+336.695+1345.17+332.634C1346.59+331.208+1346.26+328.431+1347.87+327.22C1350.16+325.508+1353.55+325.981+1355.99+324.513C1359.86+322.191+1363.21+319.098+1366.82+316.391C1370.43+313.684+1371.75+308.753+1374.95+305.563C1378.67+301.842+1383.6+299.395+1388.48+297.441C1391.94+296.059+1396.68+297.365+1399.31+294.734C1404.13+289.913+1408.13+280.346+1415.55+278.491C1418.07+277.861+1429.52+277.352+1431.8+278.491C1438.33+281.756+1440.21+290.07+1448.04+292.027C1458.85+294.73+1469.68+297.437+1480.53+300.148C1487.49+301.89+1516.87+301.89+1523.84+300.148C1536.11+297.081+1545.16+297.187+1556.33+305.563C1560.18+308.456+1569.35+315.883+1572.57+319.098C1574+320.525+1573.85+323.086+1575.28+324.513C1576.7+325.94+1579.08+326.009+1580.69+327.22C1590.53+334.602+1599.05+345.579+1607.76+354.292C1609.57+356.097+1612.04+357.423+1613.18+359.706C1613.98+361.32+1612.37+363.506+1613.18+365.121C1615.9+370.576+1623.01+376.432+1626.71+381.364C1634.32+391.505+1637.4+405.439+1642.96+416.557C1647.77+426.177+1652.61+433.926+1656.49+443.629C1658.32+448.193+1657.99+455.025+1659.2+459.872C1664.17+479.744+1668.71+499.323+1672.73+519.43C1674.12+526.371+1671.35+534.146+1672.73+541.087C1676.14+558.117+1679.39+575.826+1683.56+592.524C1686.73+605.193+1683.69+620.236+1686.27+633.131C1689.98+651.693+1694.69+670.734+1697.1+689.982C1698.11+698.041+1696.2+706.275+1697.1+714.347C1699.39+734.93+1699.94+755.985+1702.51+776.612C1704.45+792.087+1711.4+807.123+1713.34+822.634C1718.09+860.633+1720.1+899.766+1732.29+936.336C1750.47+990.874+1763.6+1045.68+1772.9+1101.47C1774.15+1108.98+1778.24+1116.17+1781.02+1123.13C1784.89+1132.79+1785.18+1143+1789.14+1152.91C1792.62+1161.6+1798.12+1170.72+1799.97+1179.98C1801.83+1189.25+1806.24+1197.76+1808.09+1207.05C1809+1211.57+1809.09+1216.32+1810.8+1220.59C1814.71+1230.37+1822.26+1240+1824.34+1250.37C1824.87+1253.02+1823.81+1255.84+1824.34+1258.49C1826.11+1267.33+1831.79+1277.12+1835.17+1285.56C1842.54+1303.99+1847.84+1323.57+1854.12+1342.41C1859.12+1357.41+1861.43+1373.91+1867.65+1388.43C1877.92+1412.39+1885.61+1437.23+1894.72+1461.53C1900.88+1477.95+1908.63+1494.75+1916.38+1510.26C1921.7+1520.9+1923.97+1534.11+1927.21+1545.45C1929.93+1554.96+1935.32+1563.01+1938.04+1572.52C1942.91+1589.57+1946.71+1606.92+1951.57+1623.96C1956.58+1641.48+1963.53+1658.25+1967.82+1675.4C1968.8+1679.31+1972.25+1682.31+1973.23+1686.22C1974.11+1689.73+1972.36+1693.55+1973.23+1697.05C1978.47+1718.01+1971.69+1740.79+1975.94+1762.03C1977.06+1767.62+1980.42+1772.64+1981.35+1778.27C1982.34+1784.19+1979.89+1791.37+1981.35+1797.22C1981.84+1799.18+1983.57+1800.68+1984.06+1802.63C1985.63+1808.91+1984.06+1817.85+1984.06+1824.29C1984.06+1841.92+1983.92+1858.67+1986.77+1875.73C1989.75+1893.64+1985.9+1911.98+1989.48+1929.87C1990.65+1935.74+1989.48+1942.81+1989.48+1948.82C1989.48+1960.7+1991.79+1975.13+1989.48+1986.72C1987.99+1994.15+1985.55+2000.95+1984.06+2008.38C1983.18+2012.8+1984.8+2017.46+1984.06+2021.91C1980.51+2043.24+1981.35+2064.96+1981.35+2086.89C1981.35+2118.76+1984.84+2153.36+1978.65+2184.35C1975.52+2199.96+1981.77+2217.46+1978.65+2233.08C1970.6+2273.29+1969.17+2314.29+1962.4+2354.9C1961.36+2361.13+1963.3+2367.6+1962.4+2373.85C1961.12+2382.86+1958.28+2391.9+1956.99+2400.92C1956.1+2407.17+1958.03+2413.64+1956.99+2419.87C1954.44+2435.18+1951.85+2450.99+1948.87+2465.89C1947.98+2470.32+1949.75+2475+1948.87+2479.43C1946.69+2490.34+1947.98+2501+1946.16+2511.91C1944.7+2520.69+1943.45+2527.12+1943.45+2536.28C1943.45+2547.47+1945.29+2560.46+1943.45+2571.47C1941.79+2581.44+1939.7+2591.28+1938.04+2601.25C1935.68+2615.4+1938.17+2630.36+1935.33+2644.57C1934.94+2646.55+1933.02+2648+1932.62+2649.98C1930.54+2660.39+1931.67+2671.95+1929.92+2682.47C1928.53+2690.81+1923.19+2698.49+1921.8+2706.83C1916.48+2738.72+1908.25+2774.46+1916.38+2807C1919.78+2820.59+1929.38+2836.78+1938.04+2847.6C1941.23+2851.59+1945.8+2854.35+1948.87+2858.43C1954.64+2866.13+1960.05+2874.77+1970.52+2877.38C1980.26+2879.82+1990.57+2883.07+2000.3+2885.51C2006.04+2886.94+2010.81+2892.19+2016.55+2893.63C2020.05+2894.5+2024.37+2891.62+2027.38+2893.63C2030.73+2895.87+2030.37+2901.23+2032.79+2904.46C2034.32+2906.5+2037.06+2907.59+2038.2+2909.87C2039.01+2911.48+2037.4+2913.67+2038.2+2915.28C2040.49+2919.85+2045.42+2922.5+2049.03+2926.11C2056.09+2933.17+2062.9+2941.54+2070.69+2947.77C2074.8+2951.06+2080.02+2952.74+2084.23+2955.89C2089.86+2960.12+2094.61+2965.52+2100.47+2969.43C2103.83+2971.67+2108.07+2972.42+2111.3+2974.84C2119.67+2981.12+2127.75+2993.84+2138.37+2996.5C2168.62+3004.06+2200.15+3010.59+2230.41+3018.16C2236.68+3019.72+2245.58+3018.16+2252.07+3018.16C2259.47+3018.16+2269.14+3019.62+2276.44+3018.16C2281.2+3017.2+2285.26+3013.92+2289.97+3012.74C2293.47+3011.87+2297.3+3013.62+2300.8+3012.74C2306.37+3011.35+2311.47+3008.72+2317.04+3007.33C2324.64+3005.43+2331.88+3008.33+2338.7+3010.04C2348.09+3012.38+2381.39+3011.79+2390.14+3010.04C2398.35+3008.39+2425.33+3003.1+2425.33+2991.09C2425.33+2983.91+2410.96+2974.01+2406.38+2969.43C2399.66+2962.7+2394.66+2953.55+2387.43+2947.77C2378.63+2940.73+2369.73+2935.07+2360.36+2928.82C2357.65+2927.02+2354.54+2925.71+2352.24+2923.41C2350.81+2921.98+2350.96+2919.42+2349.53+2917.99C2342.76+2911.23+2331.91+2905.78+2325.17+2899.04C2323.74+2897.61+2323.89+2895.05+2322.46+2893.63C2321.03+2892.2+2318.66+2892.13+2317.04+2890.92C2310.23+2885.81+2306.34+2877.51+2300.8+2871.97C2299.37+2870.54+2296.81+2870.69+2295.39+2869.26C2289.69+2863.56+2287.39+2853.15+2281.85+2847.6C2280.42+2846.18+2277.86+2846.32+2276.44+2844.9C2272.47+2840.93+2271.7+2833.16+2268.31+2828.65C2264.29+2823.29+2258.21+2818.13+2254.78+2812.41C2242.73+2792.34+2235.87+2766.54+2230.41+2744.73C2227.61+2733.52+2229.97+2720.84+2227.71+2709.54C2222.14+2681.7+2216.17+2653.84+2211.46+2625.62C2205.81+2591.72+2179.79+2564.98+2165.44+2536.28C2158.97+2523.33+2159.63+2509.51+2157.32+2495.67C2153.42+2472.25+2150.4+2448.71+2146.49+2425.28C2143.25+2405.83+2147.03+2385.18+2143.78+2365.73C2140.38+2345.32+2137.98+2324.28+2135.66+2303.46C2133.39+2283.04+2138.57+2261.53+2135.66+2241.2C2134.12+2230.36+2132.96+2222.53+2132.96+2211.42C2132.96+2187.96+2132.96+2164.49+2132.96+2141.03C2132.96+2131.19+2135.34+2118.06+2132.96+2108.54C2127.49+2086.67+2126.6+2063.24+2122.13+2040.87C2120.74+2033.92+2123.29+2026.2+2122.13+2019.21C2118.24+1995.88+2114.66+1972.36+2111.3+1948.82C2106.64+1916.24+2114.03+1881.46+2111.3+1848.66C2108.04+1809.58+2105.88+1771.64+2105.88+1732.25C2105.88+1721.7+2103.31+1707.35+2105.88+1697.05C2109.95+1680.79+2113.93+1665.05+2116.71+1648.32C2117.65+1642.69+2121.19+1637.71+2122.13+1632.08C2123.14+1625.99+2120.92+1619.19+2122.13+1613.13C2127.11+1588.19+2129.33+1562.72+2132.96+1537.33C2135.61+1518.75+2130.63+1499.11+2132.96+1480.48C2137.29+1445.81+2135.66+1410.09+2135.66+1374.9C2135.66+1341.46+2137.07+1307.68+2132.96+1274.73C2129.71+1248.73+2132.46+1219.11+2135.66+1193.52C2138.06+1174.34+2136.05+1152.55+2132.96+1133.96C2132.21+1129.51+2133.84+1124.85+2132.96+1120.42C2130.97+1110.48+2129.52+1100.52+2127.54+1090.64C2126.59+1085.88+2123.08+1081.87+2122.13+1077.11C2121.24+1072.68+2123.01+1068+2122.13+1063.57C2119.62+1051.02+2118.54+1038.47+2116.71+1025.67C2115.82+1019.42+2117.61+1012.98+2116.71+1006.72C2114.33+990.03+2109.12+974.193+2105.88+957.993C2102.74+942.274+2106.31+924.942+2103.18+909.264C2098.84+887.561+2089.58+865.694+2084.23+844.291C2081.24+832.36+2068.26+823.737+2065.28+811.805C2061.15+795.318+2051.34+781.218+2043.62+765.783C2042.34+763.231+2042.49+760.036+2040.91+757.662C2034.48+748.012+2025.37+740.78+2019.25+730.59C2010.12+715.369+2003.38+698.57+1992.18+684.568C1986.13+677.004+1978.4+667.359+1975.94+657.496C1974.73+652.649+1975.06+645.817+1973.23+641.253C1970.65+634.793+1964.17+629.355+1962.4+622.303C1961.29+617.839+1961.15+613.132+1959.7+608.767C1956.09+597.955+1948.88+587.147+1946.16+576.281C1943.82+566.931+1948.05+555.966+1946.16+546.502C1945.26+541.99+1942.7+537.504+1943.45+532.966C1945.91+518.212+1951.8+504.527+1954.28+489.651C1955.17+484.31+1953.22+478.717+1954.28+473.408C1954.68+471.429+1956.59+469.972+1956.99+467.993C1958.18+462.029+1955.51+454.952+1956.99+449.043C1957.48+447.086+1959.21+445.586+1959.7+443.629C1962.87+430.936+1957.54+415.949+1959.7+403.021C1961.28+393.527+1968.67+385.202+1970.52+375.949C1971.06+373.295+1969.99+370.482+1970.52+367.828C1971.32+363.87+1974.96+360.914+1975.94+356.999C1979.72+341.872+1983.06+325.802+1986.77+310.977C1987.86+306.6+1992.87+304.184+1994.89+300.148C1995.7+298.534+1994.08+296.348+1994.89+294.734C1997.47+289.566+2002.75+286.153+2005.72+281.198C2010.36+273.467+2012.93+260.453+2019.25+254.126C2020.68+252.699+2023.24+252.846+2024.67+251.419C2028.79+247.293+2042.1+219.584+2043.62+213.518C2044.06+211.768+2042.62+209.606+2043.62+208.104C2044.74+206.425+2047.91+207.076+2049.03+205.397C2050.03+203.895+2048.03+201.484+2049.03+199.983C2050.15+198.304+2053.02+198.702+2054.45+197.275C2058.42+193.308+2059.19+185.54+2062.57+181.032C2064.1+178.99+2066.67+177.807+2067.98+175.618C2069.45+173.171+2069.41+170.049+2070.69+167.496C2077.2+154.481+2086.05+141.266+2089.64+126.889C2090.08+125.138+2088.97+123.15+2089.64+121.474C2092.83+113.495+2099.22+105.018+2103.18+97.1097C2109.16+85.1472+2114.12+69.8827+2122.13+59.2091C2133.64+43.8625+2147.69+30.0537+2151.91+13.1871C2152.88+9.27194+2154.47+5.21197+2157.32+2.35835C2158.75+0.931539+2161.62+1.33009+2162.73-0.348832C2163.74-1.85051+2162.3-4.01229+2162.73-5.76319C2164.78-13.9351+2170.86-18.5531+2170.86-27.4206" opacity="0.997114" fill="#000000"/>
</g>
</svg>
